# This file uses centimeters as units for non-parametric coordinates.

mtllib 1.mtl
g default
v -10.409191 -5.526894 -0.026228
v 7.919497 -5.526894 -0.026228
v -10.409191 -5.526894 -4.026228
v 7.919497 -5.526894 -4.026228
vt 0.881626 0.308076
vt 0.881626 0.001992
vt 0.951862 0.001992
vt 0.951862 0.308076
vn 0.000000 1.000000 0.000000
vn 0.000000 1.000000 0.000000
vn 0.000000 1.000000 0.000000
vn 0.000000 1.000000 0.000000
s off
g roof_one
usemtl initialShadingGroup
f 1/1/1 2/2/2 4/3/3 3/4/4
g default
v -10.395627 -13.876506 -3.574907
v 8.019728 -13.876506 -3.574907
v -10.395627 -13.876506 -4.074907
v 8.019728 -13.876506 -4.074907
vt 0.639893 0.639651
vt 0.639893 0.438587
vt 0.648446 0.438587
vt 0.648446 0.639651
vn 0.000000 1.000000 0.000000
vn 0.000000 1.000000 0.000000
vn 0.000000 1.000000 0.000000
vn 0.000000 1.000000 0.000000
s off
g pPlane98 one
usemtl lambert2SG
f 5/5/5 6/6/6 8/7/7 7/8/8
g default
v -9.905965 -13.876506 -0.581720
v 7.992849 -13.876506 -0.581720
v -9.905965 -13.876506 -3.581720
v 7.992849 -13.876506 -3.581720
vt 0.787649 0.838667
vt 0.787649 0.646242
vt 0.838967 0.646242
vt 0.838967 0.838667
vn 0.000000 1.000000 0.000000
vn 0.000000 1.000000 0.000000
vn 0.000000 1.000000 0.000000
vn 0.000000 1.000000 0.000000
s off
g one pPlane24
usemtl initialShadingGroup
f 9/9/9 10/10/10 12/11/11 11/12/12
g default
v -10.394078 -13.876506 -3.584698
v -10.394078 -13.876506 -0.575332
v -9.894078 -13.876506 -3.584698
v -9.894078 -13.876506 -0.575332
vt 0.405598 0.924889
vt 0.405598 0.873411
vt 0.413960 0.873411
vt 0.413960 0.924889
vn -0.000000 1.000000 0.000000
vn -0.000000 1.000000 0.000000
vn -0.000000 1.000000 0.000000
vn -0.000000 1.000000 0.000000
s off
g one pPlane99
usemtl lambert2SG
f 13/13/13 14/14/14 16/15/15 15/16/16
g default
v 8.018006 -13.901498 -4.047200
v 8.018006 -5.536363 -4.047200
v -10.390954 -13.901498 -4.047200
v -10.390954 -5.536363 -4.047200
v -10.390950 -13.901498 -0.085920
v -10.390950 -5.536363 -0.085920
v 8.018006 -13.901498 -0.080815
v 8.018006 -5.536363 -0.080815
v -10.402154 -13.901498 -0.080815
v -10.402154 -5.536363 -0.080815
vt 0.933321 0.827529
vt 0.933321 0.726448
vt 0.981188 0.726448
vt 0.981188 0.827529
vt 0.803320 0.410796
vt 0.931746 0.410796
vt 0.931746 0.595270
vt 0.803320 0.595270
vt 0.258459 0.576509
vt 0.130033 0.576509
vt 0.130033 0.391862
vt 0.258459 0.391862
vn 0.000000 0.000000 1.000000
vn 0.000000 0.000000 1.000000
vn 0.000000 0.000000 1.000000
vn 0.000000 0.000000 1.000000
vn 1.000000 -0.000000 -0.000001
vn 1.000000 -0.000000 -0.000001
vn 1.000000 -0.000000 -0.000001
vn 1.000000 -0.000000 -0.000001
vn 0.000000 0.000000 -1.000000
vn 0.000000 0.000000 -1.000000
vn 0.000000 0.000000 -1.000000
vn 0.000000 0.000000 -1.000000
s off
g one pPlane129
usemtl initialShadingGroup
f 17/21/17 18/22/18 20/23/19 19/24/20
f 19/17/21 20/18/22 22/19/23 21/20/24
f 24/25/25 23/26/26 25/27/27 26/28/28
g default
v -10.382988 -13.876506 -0.080732
v 8.000414 -13.876506 -0.080732
v -10.382988 -13.876506 -0.580732
v 8.000414 -13.876506 -0.580732
vt 0.745694 0.638391
vt 0.745694 0.437861
vt 0.754246 0.437861
vt 0.754246 0.638391
vn 0.000000 1.000000 0.000000
vn 0.000000 1.000000 0.000000
vn 0.000000 1.000000 0.000000
vn 0.000000 1.000000 0.000000
s off
g one pPlane97
usemtl lambert2SG
f 27/29/29 28/30/30 30/31/31 29/32/32
