# This file uses centimeters as units for non-parametric coordinates.

mtllib 3.mtl
g default
v 1.554672 14.112546 12.133984
v 1.554672 14.112546 18.140039
v 2.054672 14.112546 12.133984
v 2.054672 14.112546 18.140039
vt 0.146680 0.943542
vt 0.146680 0.840804
vt 0.155043 0.840804
vt 0.155043 0.943542
vn -0.000000 1.000000 0.000000
vn -0.000000 1.000000 0.000000
vn -0.000000 1.000000 0.000000
vn -0.000000 1.000000 0.000000
s off
g pPlane90 three
usemtl lambert2SG
f 1/1/1 2/2/2 4/3/3 3/4/4
g default
v 2.051017 14.087554 18.060302
v 2.051017 22.452689 18.060302
v 2.051017 14.087554 12.127944
v 2.051017 22.452689 12.127944
v -4.082825 14.087554 18.060302
v -4.082825 22.452689 18.060302
vt 0.058517 0.943888
vt 0.058517 0.833904
vt 0.136515 0.833904
vt 0.136515 0.943888
vt 0.294432 0.817456
vt 0.294432 0.689662
vt 0.387112 0.689662
vt 0.387112 0.817456
vn -1.000000 0.000000 0.000000
vn -1.000000 0.000000 0.000000
vn -1.000000 0.000000 0.000000
vn -1.000000 0.000000 0.000000
vn 0.000000 0.000000 -1.000000
vn 0.000000 0.000000 -1.000000
vn 0.000000 0.000000 -1.000000
vn 0.000000 0.000000 -1.000000
s off
g three pPlane130
usemtl initialShadingGroup
f 5/5/5 6/6/6 8/7/7 7/8/8
f 6/9/9 5/10/10 9/11/11 10/12/12
g default
v -3.448526 14.112546 17.636085
v 1.551474 14.112546 17.636085
v -3.448526 14.112546 12.636085
v 1.551474 14.112546 12.636085
vt 0.313956 0.847217
vt 0.397577 0.847217
vt 0.397577 0.932745
vt 0.313956 0.932745
vn 0.000000 1.000000 0.000000
vn 0.000000 1.000000 0.000000
vn 0.000000 1.000000 0.000000
vn 0.000000 1.000000 0.000000
s off
g three pPlane27
usemtl initialShadingGroup
f 11/13/13 12/14/14 14/15/15 13/16/16
g default
v 2.055519 14.087554 12.127941
v 2.055519 22.452689 12.127941
v -3.947323 14.087554 12.127941
v -3.947323 22.452689 12.127941
v -3.947323 14.087554 18.060302
v -3.947323 22.452689 18.060302
vt 0.130672 0.817511
vt 0.130672 0.710808
vt 0.206343 0.710808
vt 0.206343 0.817511
vt 0.211436 0.820033
vt 0.211436 0.713331
vt 0.289166 0.713331
vt 0.289166 0.820033
vn 0.000000 0.000000 1.000000
vn 0.000000 0.000000 1.000000
vn 0.000000 0.000000 1.000000
vn 0.000000 0.000000 1.000000
vn 1.000000 -0.000000 0.000000
vn 1.000000 -0.000000 0.000000
vn 1.000000 -0.000000 0.000000
vn 1.000000 -0.000000 0.000000
s off
g three pPlane131
usemtl initialShadingGroup
f 15/21/17 16/22/18 18/23/19 17/24/20
f 17/17/21 18/18/22 20/19/23 19/20/24
g default
v -3.956126 22.380100 17.988911
v 2.043874 22.380100 17.988911
v -3.956126 22.380100 11.988910
v 2.043874 22.380100 11.988910
vt 0.198961 0.840792
vt 0.299159 0.840792
vt 0.299159 0.946145
vt 0.198961 0.946145
vn 0.000000 1.000000 0.000000
vn 0.000000 1.000000 0.000000
vn 0.000000 1.000000 0.000000
vn 0.000000 1.000000 0.000000
s off
g roof_three
usemtl initialShadingGroup
f 21/25/25 22/26/26 24/27/27 23/28/28
g default
v -3.948081 14.112546 12.133984
v -3.948081 14.112546 18.140039
v -3.448081 14.112546 12.133984
v -3.448081 14.112546 18.140039
vt 0.162354 0.943542
vt 0.162354 0.840804
vt 0.170716 0.840804
vt 0.170716 0.943542
vn -0.000000 1.000000 0.000000
vn -0.000000 1.000000 0.000000
vn -0.000000 1.000000 0.000000
vn -0.000000 1.000000 0.000000
s off
g three pPlane89
usemtl lambert2SG
f 25/29/29 26/30/30 28/31/31 27/32/32
g default
v 0.237411 14.118379 15.307223
v -0.265352 14.118379 15.307223
v 0.237411 20.686574 15.307223
v -0.265352 20.686574 15.307223
v 0.237411 20.686574 15.745167
v -0.265352 20.686574 15.745167
v 0.237411 14.118379 15.745167
v -0.265352 14.118379 15.745167
vt 0.419133 0.676563
vt 0.442363 0.676563
vt 0.424253 0.817791
vt 0.432702 0.819241
vt 0.417005 0.817792
vt 0.408656 0.819259
vt 0.412256 0.675309
vt 0.401280 0.675874
vt 0.449280 0.675297
vt 0.442331 0.819704
vn -0.000000 0.000000 -1.000000
vn -0.000000 0.000000 -1.000000
vn -0.000000 0.000000 -1.000000
vn -0.000000 0.000000 -1.000000
vn -0.000000 1.000000 0.000000
vn -0.000000 1.000000 0.000000
vn -0.000000 1.000000 0.000000
vn -0.000000 1.000000 0.000000
vn 0.000000 0.000000 1.000000
vn 0.000000 0.000000 1.000000
vn 0.000000 0.000000 1.000000
vn 0.000000 0.000000 1.000000
vn -1.000000 0.000000 0.000000
vn -1.000000 0.000000 0.000000
vn -1.000000 0.000000 0.000000
vn -1.000000 0.000000 0.000000
vn 0.997083 -0.076322 -0.000000
vn 0.997083 -0.076322 -0.000000
vn 0.997083 -0.076322 -0.000000
vn 0.997083 -0.076322 -0.000000
vn 0.997083 -0.076322 -0.000000
vn 0.997083 -0.076322 -0.000000
s off
g three pCube3
usemtl initialShadingGroup
f 29/33/33 30/34/34 32/36/35 31/35/36
f 31/35/37 32/36/38 34/38/39 33/37/40
f 33/37/41 34/38/42 36/40/43 35/39/44
f 30/34/45 36/41/46 34/42/47 32/36/48
f 31/35/49 33/37/50 35/39/51 36/41/52 30/34/53 29/33/54
g default
v 1.561564 14.112546 12.144607
v -3.468027 14.112546 12.144607
v 1.561564 14.112546 12.644607
v -3.468027 14.112546 12.644607
vt 0.438105 0.845836
vt 0.438105 0.929953
vt 0.429552 0.929953
vt 0.429552 0.845836
vn -0.000000 1.000000 -0.000000
vn -0.000000 1.000000 -0.000000
vn -0.000000 1.000000 -0.000000
vn -0.000000 1.000000 -0.000000
s off
g three pPlane92
usemtl lambert2SG
f 37/43/55 38/44/56 40/45/57 39/46/58
g default
v 1.561564 14.112546 17.636987
v -3.468027 14.112546 17.636987
v 1.561564 14.112546 18.136987
v -3.468027 14.112546 18.136987
vt 0.424390 0.845929
vt 0.424390 0.930046
vt 0.415837 0.930046
vt 0.415837 0.845929
vn -0.000000 1.000000 -0.000000
vn -0.000000 1.000000 -0.000000
vn -0.000000 1.000000 -0.000000
vn -0.000000 1.000000 -0.000000
s off
g three pPlane91
usemtl lambert2SG
f 41/47/59 42/48/60 44/49/61 43/50/62
