# This file uses centimeters as units for non-parametric coordinates.

mtllib almohadon1.mtl
g default
v -0.180919 0.073169 -0.182977
v 0.091345 0.032441 0.196334
v -0.183796 0.074751 -0.180742
v 0.088468 0.034023 0.198569
v -0.009764 0.502700 -0.259708
v 0.262499 0.461972 0.119603
v -0.006888 0.501118 -0.261942
v 0.265376 0.460390 0.117368
v -0.173296 0.086879 -0.170589
v 0.083559 0.048456 0.187254
v 0.239403 0.453433 0.101140
v -0.009113 0.490609 -0.245086
v -0.001979 0.486685 -0.250629
v 0.246538 0.449509 0.095599
v 0.090694 0.044532 0.181713
v -0.166161 0.082955 -0.176132
v -0.159682 0.118260 -0.154337
v 0.075871 0.083023 0.173830
v 0.208715 0.431444 0.098153
v -0.018500 0.465433 -0.218398
v 0.005709 0.452118 -0.237204
v 0.232924 0.418128 0.079346
v 0.100080 0.069708 0.155024
v -0.135473 0.104945 -0.173144
v -0.031172 0.124878 0.006404
v 0.095515 0.436405 -0.051079
v 0.115626 0.459976 -0.062825
v 0.122734 0.470907 -0.066638
v 0.125611 0.469325 -0.068873
v 0.122761 0.456052 -0.068368
v 0.124313 0.434376 -0.071969
v -0.006963 0.111562 -0.012402
v -0.026925 0.087968 -0.000448
v -0.033925 0.077021 0.003516
v -0.036801 0.078604 0.005751
v -0.034060 0.091892 0.005095
v -0.078676 0.294324 -0.195661
v -0.084080 0.294728 -0.208126
v -0.081203 0.293145 -0.210361
v -0.071541 0.290400 -0.201204
v -0.052754 0.283127 -0.192815
v 0.085736 0.251810 -0.063722
v 0.173128 0.249337 0.121878
v 0.175642 0.253424 0.143167
v 0.181389 0.253864 0.155476
v 0.178512 0.255446 0.157711
v 0.168508 0.257348 0.148710
v 0.148920 0.262652 0.140685
v 0.003363 0.297115 0.000268
v -0.076963 0.296442 -0.174009
v 0.196173 0.400601 0.103844
v 0.066787 0.428501 -0.031278
v -0.031043 0.434590 -0.212707
v -0.023699 0.454742 -0.238468
v -0.025225 0.464681 -0.252693
v -0.022349 0.463099 -0.254927
v -0.016565 0.450818 -0.244011
v -0.006834 0.421275 -0.231514
v 0.132720 0.392237 -0.082498
v 0.220382 0.387285 0.085038
v 0.231952 0.413642 0.102217
v 0.241577 0.423618 0.112767
v 0.238700 0.425200 0.115001
v 0.224817 0.417566 0.107759
v 0.203677 0.432197 0.091133
v 0.233155 0.454368 0.092435
v 0.247037 0.464285 0.098062
v 0.249914 0.462703 0.095827
v 0.240289 0.450444 0.086893
v 0.227886 0.418882 0.072326
v 0.230082 0.379958 0.066574
v 0.178046 0.241417 0.089063
v 0.086703 0.071709 0.136387
v 0.076107 0.046714 0.161391
v 0.075883 0.034754 0.174793
v 0.073006 0.036336 0.177028
v 0.068972 0.050638 0.166933
v 0.062494 0.085025 0.155194
v 0.117357 0.274797 0.136209
v 0.168076 0.410723 0.096648
v -0.002419 0.463027 -0.195994
v 0.008422 0.487986 -0.220657
v 0.008823 0.499920 -0.233813
v 0.011700 0.498338 -0.236047
v 0.015556 0.484062 -0.226199
v 0.021790 0.449712 -0.214800
v 0.024135 0.410711 -0.220668
v -0.017571 0.270383 -0.185212
v -0.119392 0.102539 -0.150739
v -0.148626 0.080332 -0.151702
v -0.162331 0.070388 -0.157081
v -0.165208 0.071971 -0.154847
v -0.155760 0.084256 -0.146160
v -0.143601 0.115855 -0.131933
v -0.089526 0.306086 -0.150300
v -0.029826 0.440391 -0.178749
v 0.086525 0.109220 0.168996
v 0.058591 0.119248 0.161673
v -0.039873 0.161899 0.016648
v -0.147619 0.150145 -0.125364
v -0.149029 0.144457 -0.159171
v -0.160906 0.117344 -0.176211
v -0.170664 0.107043 -0.186700
v -0.167787 0.105461 -0.188936
v -0.153772 0.113420 -0.181753
v -0.118377 0.127598 -0.182982
v -0.094048 0.120681 -0.166980
v 0.023183 0.127218 -0.032336
v 0.111929 0.089912 0.120238
v 0.110734 0.095905 0.150190
v 0.103083 0.074997 0.176091
v 0.104477 0.064733 0.190376
v 0.101600 0.066315 0.192610
v 0.095948 0.078921 0.181633
vt 0.062477 0.981058
vt 0.119078 0.981064
vt 0.006343 0.924113
vt 0.062837 0.924079
vt 0.115452 0.866815
vt 0.115445 0.923092
vt 0.006592 0.866986
vt 0.063057 0.866815
vt 0.006429 0.923359
vt 0.063150 0.923446
vt 0.175620 0.981074
vt 0.175620 0.981550
vt 0.006120 0.981058
vt 0.006120 0.981534
vt 0.007937 0.925732
vt 0.061257 0.925714
vt 0.059544 0.978905
vt 0.007955 0.978857
vt 0.008182 0.868610
vt 0.059773 0.868512
vt 0.061573 0.921807
vt 0.008027 0.921753
vt 0.064151 0.915018
vt 0.114030 0.915213
vt 0.057175 0.975019
vt 0.010357 0.975018
vt 0.064229 0.867408
vt 0.111793 0.867868
vt 0.113725 0.914106
vt 0.010514 0.917869
vt 0.089246 0.917126
vt 0.034772 0.973662
vt 0.034792 0.977654
vt 0.115448 0.895151
vt 0.035034 0.868087
vt 0.035027 0.869717
vt 0.089113 0.866815
vt 0.088902 0.912174
vt 0.035160 0.918886
vt 0.090976 0.981061
vt 0.035153 0.920519
vt 0.034827 0.926998
vt 0.034817 0.928629
vt 0.009630 0.953234
vt 0.033325 0.981534
vt 0.007998 0.953287
vt 0.033325 0.981058
vt 0.008143 0.894209
vt 0.009777 0.894251
vt 0.012431 0.894358
vt 0.088810 0.890190
vt 0.114457 0.890152
vt 0.061868 0.894235
vt 0.063500 0.894178
vt 0.148150 0.981069
vt 0.063196 0.953279
vt 0.148150 0.981545
vt 0.061564 0.953222
vt 0.114727 0.939252
vt 0.089194 0.939158
vt 0.012261 0.953111
vt 0.057200 0.970999
vt 0.089185 0.957092
vt 0.064031 0.957506
vt 0.007729 0.974061
vt 0.011111 0.981534
vt 0.006120 0.975407
vt 0.011111 0.981058
vt 0.006357 0.872049
vt 0.007963 0.873397
vt 0.063989 0.871593
vt 0.089006 0.872190
vt 0.112627 0.872126
vt 0.060001 0.873292
vt 0.061599 0.871931
vt 0.170341 0.981073
vt 0.061360 0.975478
vt 0.170340 0.981549
vt 0.059760 0.974121
vt 0.110922 0.961618
vt 0.058219 0.978954
vt 0.115445 0.919901
vt 0.059887 0.866853
vt 0.058447 0.868465
vt 0.110742 0.867990
vt 0.110042 0.872553
vt 0.110341 0.890171
vt 0.110857 0.914198
vt 0.058487 0.921910
vt 0.115887 0.981063
vt 0.059933 0.923525
vt 0.059621 0.923993
vt 0.058172 0.925607
vt 0.111162 0.915128
vt 0.110617 0.939216
vt 0.108780 0.957066
vt 0.067627 0.961691
vt 0.011658 0.978986
vt 0.115452 0.870651
vt 0.010462 0.866874
vt 0.011881 0.868481
vt 0.067639 0.867404
vt 0.068035 0.872054
vt 0.069524 0.890121
vt 0.067362 0.914486
vt 0.011817 0.921918
vt 0.066313 0.981058
vt 0.010359 0.923531
vt 0.010231 0.923992
vt 0.011650 0.925607
vt 0.067591 0.914947
vt 0.067980 0.939124
vt 0.068088 0.957030
vt 0.058887 0.932988
vt 0.110659 0.919240
vt 0.089216 0.921915
vt 0.067999 0.919091
vt 0.010352 0.932961
vt 0.007735 0.929798
vt 0.058237 0.981534
vt 0.006125 0.928405
vt 0.058237 0.981058
vt 0.006120 0.919095
vt 0.007728 0.917676
vt 0.064053 0.910582
vt 0.067604 0.910305
vt 0.088825 0.907394
vt 0.110338 0.910087
vt 0.059205 0.914521
vt 0.061785 0.917729
vt 0.063391 0.919129
vt 0.123318 0.981065
vt 0.063070 0.928393
vt 0.123318 0.981541
vt 0.061464 0.929788
vt 0.114975 0.870651
vt 0.114972 0.895151
vt 0.114969 0.919901
vt 0.114969 0.923092
vt 0.114976 0.866815
vt 0.066312 0.981534
vt 0.090976 0.981537
vt 0.010243 0.980597
vt 0.034806 0.979285
vt 0.115887 0.981540
vt 0.119078 0.981540
vt 0.059663 0.980567
vt 0.062832 0.980595
vt 0.062477 0.981534
vt 0.006368 0.980484
vt 0.114225 0.918825
vt 0.058943 0.953073
vt 0.112432 0.957446
vt 0.013646 0.975043
vt 0.089179 0.961416
vt 0.056158 0.975029
vt 0.111966 0.961694
vt 0.013639 0.929560
vt 0.034807 0.932626
vt 0.056138 0.929554
vt 0.058873 0.929573
vt 0.063974 0.918583
vt 0.064527 0.939113
vt 0.010350 0.970992
vt 0.064226 0.961674
vt 0.010344 0.929575
vt 0.113907 0.910499
vt 0.057451 0.876422
vt 0.059246 0.894383
vt 0.013877 0.872422
vt 0.035019 0.872369
vt 0.056390 0.872394
vt 0.057410 0.872401
vt 0.013942 0.917991
vt 0.035186 0.914874
vt 0.056461 0.917961
vt 0.059195 0.917942
vt 0.010978 0.914446
vt 0.063974 0.914266
vt 0.010578 0.876474
vt 0.064900 0.890058
vt 0.010587 0.872446
vn -0.371306 -0.913098 0.168474
vn -0.303697 -0.917081 0.258324
vn -0.303699 -0.917081 0.258322
vn -0.371306 -0.913098 0.168474
vn -0.951998 0.096101 0.290627
vn -0.784652 -0.231978 0.574897
vn -0.852354 0.240212 0.464532
vn -0.931071 0.314792 -0.184428
vn 0.371355 0.913073 -0.168501
vn 0.401183 0.907301 -0.125927
vn 0.401184 0.907301 -0.125926
vn 0.371355 0.913073 -0.168501
vn 0.314089 -0.310213 -0.897282
vn 0.572938 -0.535459 -0.620504
vn 0.373266 -0.876803 -0.303132
vn 0.365249 -0.740560 -0.564060
vn 0.580765 -0.086882 0.809421
vn 0.580825 -0.086918 0.809375
vn 0.580825 -0.086918 0.809375
vn 0.580765 -0.086882 0.809421
vn -0.554125 0.149292 -0.818937
vn -0.580929 0.086960 -0.809296
vn -0.580929 0.086960 -0.809296
vn -0.554125 0.149291 -0.818937
vn -0.787528 0.191365 0.585816
vn -0.777208 0.181218 0.602585
vn -0.772746 0.176917 0.609560
vn -0.787528 0.191365 0.585815
vn -0.581517 0.370143 0.724453
vn -0.581505 0.370147 0.724460
vn -0.581501 0.370149 0.724463
vn -0.581517 0.370143 0.724453
vn -0.619181 0.588870 0.519468
vn -0.626829 0.586519 0.512913
vn -0.626829 0.586519 0.512913
vn -0.616347 0.589719 0.521869
vn -0.830228 0.418965 0.367682
vn -0.832855 0.407769 0.374269
vn -0.832855 0.407769 0.374270
vn -0.829120 0.423488 0.364991
vn 0.787555 -0.191359 -0.585781
vn 0.793850 -0.188303 -0.578225
vn 0.796148 -0.187172 -0.575427
vn 0.787555 -0.191359 -0.585781
vn 0.832879 -0.407739 -0.374248
vn 0.832853 -0.407768 -0.374274
vn 0.832853 -0.407768 -0.374274
vn 0.832888 -0.407729 -0.374240
vn 0.634122 -0.595025 -0.493796
vn 0.626834 -0.586511 -0.512918
vn 0.626834 -0.586511 -0.512918
vn 0.637098 -0.598525 -0.485669
vn 0.581515 -0.370154 -0.724449
vn 0.582478 -0.358021 -0.729753
vn 0.582840 -0.353081 -0.731868
vn 0.581515 -0.370154 -0.724449
vn -0.809045 0.047560 0.585820
vn -0.785973 0.034620 0.617290
vn -0.780625 0.031714 0.624195
vn -0.809045 0.047560 0.585820
vn -0.295132 0.288131 0.910976
vn -0.295135 0.288135 0.910974
vn -0.295136 0.288137 0.910973
vn -0.295132 0.288131 0.910976
vn -0.531339 0.698499 0.479352
vn -0.544875 0.697121 0.465975
vn -0.544875 0.697121 0.465975
vn -0.528633 0.698742 0.481983
vn -0.906365 0.422494 -0.000825
vn -0.913267 0.407147 0.013192
vn -0.923425 0.382118 0.035667
vn -0.923425 0.382118 0.035667
vn 0.809062 -0.047563 -0.585796
vn 0.819176 0.013192 -0.573390
vn 0.821049 0.027188 -0.570210
vn 0.809061 -0.047563 -0.585796
vn 0.923428 -0.382109 -0.035679
vn 0.923430 -0.382105 -0.035677
vn 0.923430 -0.382106 -0.035677
vn 0.923427 -0.382111 -0.035680
vn 0.561940 -0.706737 -0.429821
vn 0.544903 -0.697108 -0.465962
vn 0.544903 -0.697108 -0.465962
vn 0.565624 -0.708730 -0.421629
vn 0.237449 -0.390668 -0.889380
vn 0.179067 -0.232110 -0.956065
vn 0.152205 -0.161723 -0.975028
vn 0.237449 -0.390668 -0.889380
vn -0.795674 -0.269006 0.542714
vn -0.818448 -0.231572 0.525848
vn -0.692029 0.216952 0.688497
vn -0.773432 0.247163 0.583707
vn -0.554141 0.702646 0.446337
vn -0.541399 0.701244 0.463835
vn -0.541335 0.701235 0.463925
vn -0.554791 0.703027 0.444926
vn -0.630617 0.591174 0.502828
vn -0.623805 0.591241 0.511177
vn -0.623738 0.591230 0.511271
vn -0.631478 0.592241 0.500486
vn 0.371294 0.913104 -0.168468
vn 0.371289 0.913105 -0.168476
vn 0.339951 0.916435 -0.211143
vn 0.339949 0.916435 -0.211144
vn 0.788748 -0.185647 -0.586014
vn 0.788681 -0.185636 -0.586107
vn 0.782172 -0.185870 -0.594693
vn 0.780926 -0.184580 -0.596729
vn 0.813727 0.036478 -0.580102
vn 0.813667 0.036488 -0.580185
vn 0.805966 0.028537 -0.591274
vn 0.805492 0.034926 -0.591577
vn 0.326386 -0.886152 -0.328949
vn 0.656159 -0.540191 -0.526925
vn 0.720578 -0.559990 -0.408874
vn 0.335367 -0.866180 -0.370488
vn 0.514246 -0.700150 -0.495319
vn 0.537055 -0.706152 -0.461435
vn 0.537182 -0.706170 -0.461258
vn 0.508263 -0.700587 -0.500846
vn 0.609389 -0.592006 -0.527422
vn 0.619916 -0.597001 -0.509209
vn 0.620058 -0.597021 -0.509013
vn 0.603007 -0.593908 -0.532593
vn -0.371304 -0.913102 0.168459
vn -0.371292 -0.913104 0.168476
vn -0.435040 -0.897266 0.075188
vn -0.435038 -0.897267 0.075191
vn -0.790069 0.178581 0.586431
vn -0.790211 0.178600 0.586233
vn -0.801656 0.184109 0.568729
vn -0.806655 0.181440 0.562483
vn -0.810050 0.034809 0.585327
vn -0.810177 0.034827 0.585149
vn -0.833211 0.040950 0.551436
vn -0.837674 0.039674 0.544728
vn -0.839642 0.396182 0.371538
vn -0.836303 0.407300 0.367020
vn -0.835928 0.408190 0.366887
vn -0.843086 0.390165 0.370104
vn -0.606652 0.019647 -0.794725
vn -0.580961 0.086937 -0.809275
vn -0.580960 0.086939 -0.809276
vn -0.606651 0.019647 -0.794725
vn 0.575887 -0.368303 -0.729868
vn 0.575500 -0.369187 -0.729726
vn 0.572903 -0.380740 -0.725823
vn 0.568449 -0.386186 -0.726448
vn 0.187855 -0.227032 -0.955598
vn 0.191474 -0.233973 -0.953202
vn 0.267275 -0.310465 -0.912237
vn 0.244766 -0.328022 -0.912410
vn 0.228223 -0.267153 -0.936239
vn 0.670483 -0.230867 -0.705090
vn 0.627763 -0.383216 -0.677539
vn 0.227051 -0.261892 -0.938009
vn 0.812015 -0.408343 -0.416997
vn 0.724155 -0.401763 -0.560523
vn 0.779302 -0.231490 -0.582323
vn 0.857790 -0.246189 -0.451206
vn 0.931502 -0.359290 -0.056690
vn 0.930088 -0.363519 -0.052826
vn 0.929988 -0.363814 -0.052556
vn 0.935692 -0.346069 -0.068682
vn 0.819094 -0.410397 -0.400824
vn 0.834436 -0.400421 -0.378655
vn 0.834446 -0.400372 -0.378684
vn 0.831913 -0.396907 -0.387795
vn 0.594169 -0.053419 0.802565
vn 0.594169 -0.053418 0.802564
vn 0.581088 -0.086893 0.809189
vn 0.581087 -0.086895 0.809189
vn -0.580928 0.378078 0.720819
vn -0.580932 0.378026 0.720843
vn -0.603978 0.372318 0.704691
vn -0.586200 0.383083 0.713875
vn -0.298683 0.311964 0.901924
vn -0.298738 0.312343 0.901775
vn -0.299524 0.317772 0.899615
vn -0.301894 0.334583 0.892700
vn -0.724427 0.395264 0.564776
vn -0.611655 0.378143 0.694900
vn -0.550645 0.548524 0.629215
vn -0.643991 0.557340 0.524069
vn -0.909724 0.320985 -0.263385
vn -0.814114 0.404150 0.416991
vn -0.731550 0.554321 0.396943
vn -0.911854 0.370396 -0.176999
vn -0.935978 0.351340 0.022484
vn -0.926776 0.375596 0.003681
vn -0.925347 0.379108 0.003234
vn -0.945150 0.326419 0.011917
vn -0.298188 0.866345 0.400663
vn -0.291255 0.906151 0.306694
vn -0.359233 0.884012 0.299122
vn -0.745617 0.638606 0.190363
vn -0.923420 0.382129 0.035685
vn -0.923420 0.382129 0.035685
vn -0.832866 0.407757 0.374258
vn -0.832866 0.407757 0.374258
vn -0.580782 0.086877 -0.809410
vn -0.580782 0.086877 -0.809410
vn 0.581434 -0.370158 -0.724512
vn 0.581434 -0.370158 -0.724512
vn 0.295140 -0.288133 -0.910973
vn 0.295140 -0.288133 -0.910973
vn 0.560531 -0.079741 -0.824285
vn 0.772619 0.185110 -0.607285
vn 0.803999 0.217368 -0.553477
vn 0.840645 0.197746 -0.504194
vn 0.923428 -0.382110 -0.035685
vn 0.923428 -0.382110 -0.035685
vn 0.796526 -0.432660 -0.422318
vn 0.796526 -0.432660 -0.422318
vn 0.428308 -0.379679 0.819998
vn 0.428308 -0.379678 0.819998
vn -0.633244 0.353734 0.688385
vn -0.633244 0.353734 0.688385
vn -0.295139 0.288133 0.910973
vn -0.295139 0.288133 0.910973
vn -0.544889 0.697115 0.465970
vn -0.544889 0.697114 0.465970
vn -0.626833 0.586502 0.512929
vn -0.626833 0.586502 0.512929
vn 0.371263 0.913118 -0.168461
vn 0.371263 0.913118 -0.168461
vn 0.787504 -0.191440 -0.585823
vn 0.787504 -0.191440 -0.585823
vn 0.809066 -0.047546 -0.585792
vn 0.809066 -0.047546 -0.585792
vn 0.914490 -0.243710 0.322977
vn 0.966286 -0.143483 0.213785
vn 0.918816 -0.313761 0.239440
vn 0.908215 -0.396783 0.133073
vn 0.739817 -0.659880 -0.131256
vn 0.544893 -0.697114 -0.465966
vn 0.544893 -0.697114 -0.465966
vn 0.626848 -0.586513 -0.512899
vn 0.626848 -0.586513 -0.512899
vn -0.371301 -0.913099 0.168484
vn -0.371301 -0.913099 0.168484
vn -0.787506 0.191436 0.585822
vn -0.787506 0.191436 0.585822
vn -0.809042 0.047562 0.585824
vn -0.809042 0.047562 0.585824
vn -0.524323 0.035412 0.850783
vn -0.165318 0.193676 0.967037
vn -0.096478 0.250385 0.963327
vn -0.095678 0.307263 0.946803
vn -0.242142 0.411072 0.878856
s 1
g cushion
usemtl lambert8SG
f 1/1/1 91/107/2 92/141/3 3/149/4
s 2
f 17/23/5 94/111/6 100/117/7 101/162/8
s 3
f 5/5/9 83/99/10 84/136/11 7/140/12
s 4
f 106/125/13 107/126/14 89/105/15 24/179/16
s 5
f 2/2/17 112/132/18 113/134/19 4/146/20
s 6
f 104/122/21 1/1/22 3/149/23 103/120/24
s 7
f 3/3/25 92/109/26 93/110/27 9/15/28
s 8
f 4/4/29 113/133/30 114/135/31 10/16/32
s 9
f 83/143/33 5/150/34 12/18/35 82/98/36
s 10
f 103/121/37 3/3/38 9/15/39 102/119/40
s 11
f 7/7/41 84/100/42 85/101/43 13/19/44
s 12
f 112/131/45 2/10/46 15/21/47 111/130/48
s 13
f 91/108/49 1/9/50 16/22/51 90/106/52
s 14
f 1/9/53 104/123/54 105/124/55 16/22/56
s 15
f 9/15/57 93/110/58 94/158/59 17/166/60
s 16
f 10/16/61 114/135/62 97/114/63 18/161/64
s 17
f 82/98/65 12/18/66 20/26/67 81/154/68
s 18
f 101/118/69 102/119/70 9/15/71 17/166/72
s 19
f 13/19/73 85/101/74 86/170/75 21/182/76
s 20
f 111/130/77 15/21/78 23/177/79 110/129/80
s 21
f 90/106/81 16/22/82 24/30/83 89/174/84
s 22
f 16/22/85 105/124/86 106/178/87 24/30/88
s 2
f 25/31/89 78/94/90 98/115/91 99/116/92
s 17
f 66/81/93 27/33/94 26/32/95 65/156/96
s 9
f 67/147/97 28/144/98 27/33/99 66/81/100
s 3
f 29/137/101 28/34/102 67/82/103 68/138/104
s 11
f 30/36/105 29/35/106 68/83/107 69/84/108
s 19
f 31/171/109 30/36/110 69/84/111 70/172/112
s 4
f 32/38/113 108/127/114 109/128/115 73/88/116
s 21
f 74/89/117 33/39/118 32/175/119 73/176/120
s 13
f 75/91/121 34/41/122 33/39/123 74/89/124
s 1
f 35/142/125 34/40/126 75/90/127 76/145/128
s 7
f 36/43/129 35/42/130 76/92/131 77/93/132
s 15
f 25/159/133 36/43/134 77/93/135 78/160/136
s 10
f 55/67/137 38/46/138 37/44/139 54/65/140
s 6
f 56/68/141 39/47/142 38/45/143 55/66/144
s 14
f 40/49/145 39/48/146 56/69/147 57/70/148
s 22
f 41/50/149 40/49/150 57/70/151 58/180/152
s 4
f 58/71/153 87/103/154 88/104/155 41/181/156
f 72/87/157 42/51/158 59/72/159 71/86/160
s 20
f 61/74/161 44/53/162 43/169/163 60/168/164
s 12
f 62/75/165 45/54/166 44/53/167 61/74/168
s 5
f 46/57/169 45/55/170 62/76/171 63/78/172
s 8
f 47/58/173 46/56/174 63/77/175 64/79/176
s 16
f 48/152/177 47/58/178 64/79/179 51/62/180
s 2
f 49/60/181 79/95/182 80/96/183 52/63/184
f 50/163/185 95/112/186 96/113/187 53/64/188
s 18
f 54/65/189 37/44/190 50/61/191 53/164/192
s 2
f 52/63/184 80/96/183 65/80/193 26/155/194
f 53/64/188 96/113/187 81/97/195 20/165/196
s 18
f 12/18/197 54/65/189 53/164/192 20/26/198
s 10
f 5/150/199 55/67/137 54/65/140 12/18/200
s 6
f 7/13/201 56/68/141 55/66/144 5/14/202
s 14
f 57/70/148 56/69/147 7/7/203 13/19/204
s 22
f 58/180/152 57/70/151 13/19/205 21/182/206
s 4
f 21/27/207 86/102/208 87/103/154 58/71/153
f 71/86/160 59/72/159 31/37/209 70/85/210
s 20
f 14/20/211 61/74/161 60/168/164 22/173/212
s 12
f 8/8/213 62/75/165 61/74/168 14/20/214
s 5
f 63/78/172 62/76/171 8/11/215 6/12/216
s 8
f 64/79/176 63/77/175 6/148/217 11/17/218
s 16
f 51/62/180 64/79/179 11/17/219 19/25/220
s 17
f 11/17/221 66/81/93 65/156/96 19/25/222
s 9
f 6/148/223 67/147/97 66/81/100 11/17/224
s 3
f 68/138/104 67/82/103 6/6/225 8/139/226
s 11
f 69/84/108 68/83/107 8/8/227 14/20/228
s 19
f 70/172/112 69/84/111 14/20/229 22/173/230
s 4
f 60/73/231 71/86/160 70/85/210 22/28/232
f 43/52/233 72/87/157 71/86/160 60/73/231
f 73/88/116 109/128/115 110/167/234 23/29/235
s 21
f 15/21/236 74/89/117 73/176/120 23/177/237
s 13
f 2/10/238 75/91/121 74/89/124 15/21/239
s 1
f 76/145/128 75/90/127 2/2/240 4/146/241
s 7
f 77/93/132 76/92/131 4/4/242 10/16/243
s 15
f 78/160/136 77/93/135 10/16/244 18/161/245
s 2
f 98/115/91 78/94/90 18/24/246 97/151/247
f 80/96/183 79/95/182 48/59/248 51/153/249
f 65/80/193 80/96/183 51/153/249 19/157/250
s 17
f 27/33/94 82/98/65 81/154/68 26/32/95
s 9
f 28/144/98 83/143/33 82/98/36 27/33/99
s 3
f 84/136/11 83/99/10 28/34/102 29/137/101
s 11
f 85/101/43 84/100/42 29/35/106 30/36/105
s 19
f 86/170/75 85/101/74 30/36/110 31/171/109
s 4
f 87/103/154 86/102/208 31/37/209 59/72/159
f 88/104/155 87/103/154 59/72/159 42/51/158
f 89/105/15 107/126/14 108/127/114 32/38/113
s 21
f 33/39/118 90/106/81 89/174/84 32/175/119
s 13
f 34/41/122 91/108/49 90/106/52 33/39/123
s 1
f 92/141/3 91/107/2 34/40/126 35/142/125
s 7
f 93/110/27 92/109/26 35/42/130 36/43/129
s 15
f 94/158/59 93/110/58 36/43/134 25/159/133
s 2
f 100/117/7 94/111/6 25/31/89 99/116/92
f 96/113/187 95/112/186 49/60/181 52/63/184
f 81/97/195 96/113/187 52/63/184 26/155/194
f 79/95/182 98/115/91 97/151/247 48/59/248
f 99/116/92 98/115/91 79/95/182 49/60/181
f 95/112/186 100/117/7 99/116/92 49/60/181
f 101/162/8 100/117/7 95/112/186 50/163/185
s 18
f 50/61/191 37/44/190 102/119/70 101/118/69
s 10
f 38/46/138 103/121/37 102/119/40 37/44/139
s 6
f 39/47/142 104/122/21 103/120/24 38/45/143
s 14
f 105/124/55 104/123/54 39/48/146 40/49/145
s 22
f 106/178/87 105/124/86 40/49/150 41/50/149
s 4
f 41/181/156 88/104/155 107/126/14 106/125/13
f 108/127/114 107/126/14 88/104/155 42/51/158
f 109/128/115 108/127/114 42/51/158 72/87/157
f 110/167/234 109/128/115 72/87/157 43/52/233
s 20
f 44/53/162 111/130/77 110/129/80 43/169/163
s 12
f 45/54/166 112/131/45 111/130/48 44/53/167
s 5
f 113/134/19 112/132/18 45/55/170 46/57/169
s 8
f 114/135/31 113/133/30 46/56/174 47/58/173
s 16
f 97/114/63 114/135/62 47/58/178 48/152/177
