# This file uses centimeters as units for non-parametric coordinates.

mtllib kitchendoor.mtl
g default
v -0.049916 0.012685 1.047702
v 0.049918 0.012685 1.047702
v -0.049916 4.012547 1.047702
v 0.049918 4.012547 1.047702
v -0.049916 4.012547 -1.047699
v 0.049918 4.012547 -1.047699
v -0.049916 0.012685 -1.047699
v 0.049918 0.012685 -1.047699
vt 0.090205 0.424486
vt 0.029258 0.424486
vt 0.029258 0.317142
vt 0.090205 0.317142
vt 0.151151 0.424486
vt 0.090205 0.424486
vt 0.090205 0.317142
vt 0.151151 0.317142
vt 0.016378 0.406272
vt 0.023063 0.406272
vt 0.023063 0.455198
vt 0.016378 0.455197
vt 0.016378 0.312184
vt 0.023063 0.312185
vt 0.023062 0.549286
vt 0.016378 0.549285
vn 0.000000 0.000000 1.000000
vn 0.000000 0.000000 1.000000
vn 0.000000 0.000000 1.000000
vn 0.000000 0.000000 1.000000
vn 0.000000 1.000000 0.000000
vn 0.000000 1.000000 0.000000
vn 0.000000 1.000000 0.000000
vn 0.000000 1.000000 0.000000
vn 0.000000 0.000000 -1.000000
vn 0.000000 0.000000 -1.000000
vn 0.000000 0.000000 -1.000000
vn 0.000000 0.000000 -1.000000
vn 1.000000 0.000000 0.000000
vn 1.000000 0.000000 0.000000
vn 1.000000 0.000000 0.000000
vn 1.000000 0.000000 0.000000
vn -1.000000 0.000000 0.000000
vn -1.000000 0.000000 0.000000
vn -1.000000 0.000000 0.000000
vn -1.000000 0.000000 0.000000
s off
g kitchendoor
usemtl lambert8SG
f 1/13/1 2/14/2 4/10/3 3/9/4
f 3/9/5 4/10/6 6/11/7 5/12/8
f 5/12/9 6/11/10 8/15/11 7/16/12
f 2/1/13 8/2/14 6/3/15 4/4/16
f 7/5/17 1/6/18 3/7/19 5/8/20
