# This file uses centimeters as units for non-parametric coordinates.

mtllib screns.mtl
g default
v -6.352798 3.981808 -0.237530
v -5.541715 3.913817 -0.455518
v -6.389208 3.374285 -0.183514
v -5.578124 3.306293 -0.401503
v -6.360811 3.979696 -0.266683
v -5.549726 3.911705 -0.484672
v -5.586137 3.304182 -0.430657
v -6.397221 3.372173 -0.212668
vt 0.905747 0.418293
vt 0.672732 0.418231
vt 0.905695 0.245048
vt 0.672680 0.244983
vt 0.870614 0.459445
vt 0.738084 0.459445
vt 0.738084 0.555547
vt 0.870614 0.555547
vt 0.900348 0.412791
vt 0.677760 0.412354
vt 0.678076 0.250486
vt 0.900668 0.250926
vn -0.264364 -0.069680 -0.961902
vn -0.264364 -0.069680 -0.961902
vn -0.264364 -0.069680 -0.961902
vn -0.264364 -0.069680 -0.961902
vn 0.264364 0.069680 0.961902
vn 0.264364 0.069680 0.961902
vn 0.264364 0.069680 0.961902
vn 0.264364 0.069680 0.961902
vn 0.059590 0.994301 -0.088401
vn 0.059590 0.994301 -0.088401
vn 0.059590 0.994301 -0.088401
vn 0.059590 0.994301 -0.088401
vn 0.962582 -0.080691 -0.258700
vn 0.962582 -0.080691 -0.258700
vn 0.962582 -0.080691 -0.258700
vn 0.962582 -0.080691 -0.258700
vn -0.059592 -0.994300 0.088406
vn -0.059592 -0.994300 0.088406
vn -0.059592 -0.994300 0.088406
vn -0.059592 -0.994300 0.088406
vn -0.962580 0.080689 0.258708
vn -0.962580 0.080689 0.258708
vn -0.962580 0.080689 0.258708
vn -0.962580 0.080689 0.258708
s off
g pPlane4 group2 group1 Mat3
usemtl lambert5SG
f 5/9/1 6/10/2 7/11/3 8/12/4
f 1/5/5 3/8/6 4/7/7 2/6/8
f 1/1/9 2/2/10 6/10/11 5/9/12
f 2/2/13 4/4/14 7/11/15 6/10/16
f 4/4/17 3/3/18 8/12/19 7/11/20
f 3/3/21 1/1/22 5/9/23 8/12/24
g default
v -6.530069 3.190127 -0.245404
v -5.414299 3.309063 -0.477619
v -6.425184 2.370161 -0.161414
v -5.309415 2.489096 -0.393628
v -6.537879 3.185016 -0.285550
v -5.422110 3.303952 -0.517764
v -5.317225 2.483985 -0.433774
v -6.432995 2.365050 -0.201559
vt 0.316946 0.826711
vt 0.000069 0.826627
vt 0.316875 0.591117
vt 0.000000 0.591029
vt 0.870614 0.459445
vt 0.738084 0.459445
vt 0.738084 0.555546
vt 0.870614 0.555547
vt 0.309605 0.819229
vt 0.006907 0.818636
vt 0.007338 0.598511
vt 0.310039 0.599110
vn -0.189495 -0.124009 -0.974019
vn -0.189495 -0.124009 -0.974019
vn -0.189495 -0.124009 -0.974019
vn -0.189495 -0.124009 -0.974019
vn 0.189495 0.124009 0.974019
vn 0.189495 0.124009 0.974019
vn 0.189495 0.124009 0.974019
vn 0.189495 0.124009 0.974019
vn -0.126229 0.986838 -0.101083
vn -0.126229 0.986838 -0.101083
vn -0.126229 0.986838 -0.101083
vn -0.126229 0.986838 -0.101083
vn 0.973733 0.103794 -0.202661
vn 0.973733 0.103794 -0.202661
vn 0.973733 0.103794 -0.202661
vn 0.973733 0.103794 -0.202661
vn 0.126229 -0.986837 0.101085
vn 0.126229 -0.986838 0.101085
vn 0.126229 -0.986838 0.101085
vn 0.126229 -0.986837 0.101085
vn -0.973733 -0.103797 0.202656
vn -0.973733 -0.103797 0.202656
vn -0.973733 -0.103797 0.202656
vn -0.973733 -0.103797 0.202656
s off
g group2 group1 Mat3 pPlane3
usemtl lambert5SG
f 13/21/25 14/22/26 15/23/27 16/24/28
f 9/17/29 11/20/30 12/19/31 10/18/32
f 9/13/33 10/14/34 14/22/35 13/21/36
f 10/14/37 12/16/38 15/23/39 14/22/40
f 12/16/41 11/15/42 16/24/43 15/23/44
f 11/15/45 9/13/46 13/21/47 16/24/48
g default
v -6.673168 2.295273 -0.485610
v -5.539106 2.289454 -0.891637
v -6.710330 1.427388 -0.576970
v -5.576268 1.421570 -0.982997
v -6.687657 2.300161 -0.526149
v -5.553596 2.294343 -0.932177
v -5.590757 1.426458 -1.023537
v -6.724819 1.432276 -0.617510
vt 0.333183 0.591116
vt 0.000073 0.591027
vt 0.333109 0.343452
vt -0.000000 0.343359
vt 0.870614 0.459445
vt 0.738084 0.459445
vt 0.738084 0.555546
vt 0.870614 0.555547
vt 0.325466 0.583251
vt 0.007261 0.582626
vt 0.007714 0.351225
vt 0.325922 0.351855
vn -0.334412 0.112813 -0.935651
vn -0.334412 0.112813 -0.935651
vn -0.334412 0.112813 -0.935651
vn -0.334412 0.112813 -0.935651
vn 0.334412 -0.112813 0.935651
vn 0.334412 -0.112813 0.935651
vn 0.334412 -0.112813 0.935651
vn 0.334412 -0.112813 0.935651
vn 0.042546 0.993604 0.104598
vn 0.042546 0.993604 0.104598
vn 0.042546 0.993604 0.104598
vn 0.042546 0.993604 0.104598
vn 0.941468 -0.004830 -0.337069
vn 0.941468 -0.004830 -0.337069
vn 0.941467 -0.004830 -0.337069
vn 0.941467 -0.004830 -0.337069
vn -0.042545 -0.993605 -0.104593
vn -0.042545 -0.993605 -0.104593
vn -0.042545 -0.993605 -0.104593
vn -0.042545 -0.993605 -0.104593
vn -0.941467 0.004832 0.337069
vn -0.941467 0.004832 0.337069
vn -0.941468 0.004832 0.337069
vn -0.941467 0.004832 0.337069
s off
g group2 group1 Mat3 mainpc
usemtl lambert5SG
f 21/33/49 22/34/50 23/35/51 24/36/52
f 17/29/53 19/32/54 20/31/55 18/30/56
f 17/25/57 18/26/58 22/34/59 21/33/60
f 18/26/61 20/28/62 23/35/63 22/34/64
f 20/28/65 19/27/66 24/36/67 23/35/68
f 19/27/69 17/25/70 21/33/71 24/36/72
g default
v -7.154668 2.722470 -0.219558
v -6.229094 2.663096 -0.404235
v -7.182566 2.041862 -0.140558
v -6.256991 1.982488 -0.325235
v -7.161507 2.718905 -0.252688
v -6.235932 2.659531 -0.437365
v -6.263830 1.978923 -0.358365
v -7.189404 2.038297 -0.173688
vt 0.896035 0.785706
vt 0.634517 0.785636
vt 0.895977 0.591270
vt 0.634460 0.591197
vt 0.870614 0.459445
vt 0.738084 0.459445
vt 0.738084 0.555546
vt 0.870614 0.555547
vt 0.889977 0.779531
vt 0.640160 0.779040
vt 0.640516 0.597372
vt 0.890335 0.597866
vn -0.201053 -0.104809 -0.973957
vn -0.201053 -0.104809 -0.973957
vn -0.201053 -0.104809 -0.973957
vn -0.201053 -0.104809 -0.973957
vn 0.201053 0.104809 0.973957
vn 0.201053 0.104809 0.973957
vn 0.201053 0.104809 0.973957
vn 0.201053 0.104809 0.973957
vn 0.040682 0.992507 -0.115215
vn 0.040682 0.992507 -0.115215
vn 0.040682 0.992507 -0.115215
vn 0.040682 0.992507 -0.115215
vn 0.978736 -0.062784 -0.195278
vn 0.978736 -0.062784 -0.195278
vn 0.978736 -0.062784 -0.195278
vn 0.978736 -0.062784 -0.195278
vn -0.040682 -0.992509 0.115202
vn -0.040682 -0.992509 0.115202
vn -0.040682 -0.992509 0.115202
vn -0.040682 -0.992509 0.115202
vn -0.978736 0.062786 0.195278
vn -0.978736 0.062786 0.195278
vn -0.978736 0.062786 0.195278
vn -0.978736 0.062786 0.195278
s off
g group2 group1 Mat3 pPlane6
usemtl lambert5SG
f 29/45/73 30/46/74 31/47/75 32/48/76
f 25/41/77 27/44/78 28/43/79 26/42/80
f 25/37/81 26/38/82 30/46/83 29/45/84
f 26/38/85 28/40/86 31/47/87 30/46/88
f 28/40/89 27/39/90 32/48/91 31/47/92
f 27/39/93 25/37/94 29/45/95 32/48/96
g default
v -7.607191 2.138765 -0.226370
v -6.768581 2.192927 -0.288010
v -7.564355 1.531232 -0.177412
v -6.725745 1.585394 -0.239052
v -7.609240 2.136193 -0.256500
v -6.770630 2.190355 -0.318140
v -6.727794 1.582822 -0.269181
v -7.566403 1.528660 -0.207541
vt 0.867526 0.958947
vt 0.634511 0.958885
vt 0.867474 0.785703
vt 0.634460 0.785637
vt 0.870614 0.459445
vt 0.738084 0.459445
vt 0.738084 0.555546
vt 0.870614 0.555547
vt 0.862128 0.953445
vt 0.639539 0.953009
vt 0.639856 0.791140
vt 0.862447 0.791580
vn -0.067587 -0.084876 -0.994097
vn -0.067587 -0.084876 -0.994097
vn -0.067587 -0.084876 -0.994097
vn -0.067587 -0.084876 -0.994097
vn 0.067587 0.084876 0.994097
vn 0.067587 0.084876 0.994097
vn 0.067587 0.084876 0.994097
vn 0.067587 0.084876 0.994097
vn -0.070108 0.994316 -0.080126
vn -0.070108 0.994316 -0.080126
vn -0.070108 0.994316 -0.080126
vn -0.070108 0.994316 -0.080126
vn 0.995247 0.064278 -0.073154
vn 0.995247 0.064278 -0.073154
vn 0.995247 0.064278 -0.073154
vn 0.995247 0.064278 -0.073154
vn 0.070108 -0.994316 0.080132
vn 0.070108 -0.994316 0.080132
vn 0.070108 -0.994316 0.080132
vn 0.070108 -0.994316 0.080132
vn -0.995247 -0.064279 0.073154
vn -0.995247 -0.064279 0.073154
vn -0.995247 -0.064279 0.073154
vn -0.995247 -0.064279 0.073154
s off
g group2 group1 Mat3 pPlane9
usemtl lambert5SG
f 37/57/97 38/58/98 39/59/99 40/60/100
f 33/53/101 35/56/102 36/55/103 34/54/104
f 33/49/105 34/50/106 38/58/107 37/57/108
f 34/50/109 36/52/110 39/59/111 38/58/112
f 36/52/113 35/51/114 40/60/115 39/59/116
f 35/51/117 33/49/118 37/57/119 40/60/120
g default
v -8.289627 2.871837 -0.308611
v -7.138578 2.788796 -0.013271
v -8.345852 2.010180 -0.331756
v -7.194802 1.927139 -0.036416
v -8.278951 2.872255 -0.350105
v -7.127901 2.789214 -0.054766
v -7.184126 1.927556 -0.077911
v -8.335175 2.010597 -0.373251
vt 0.791962 0.245014
vt 0.462540 0.244926
vt 0.791888 0.000092
vt 0.462468 0.000000
vt 0.870614 0.459445
vt 0.738084 0.459445
vt 0.738084 0.555547
vt 0.870614 0.555547
vt 0.784330 0.237236
vt 0.469648 0.236618
vt 0.470096 0.007779
vt 0.784781 0.008401
vn 0.249181 0.009753 -0.968408
vn 0.249181 0.009753 -0.968408
vn 0.249181 0.009753 -0.968408
vn 0.249181 0.009753 -0.968408
vn -0.249181 -0.009753 0.968408
vn -0.249181 -0.009753 0.968408
vn -0.249181 -0.009753 0.968408
vn -0.249181 -0.009753 0.968408
vn 0.065090 0.997520 0.026799
vn 0.065090 0.997520 0.026799
vn 0.065090 0.997519 0.026799
vn 0.065090 0.997520 0.026799
vn 0.966268 -0.069710 0.247926
vn 0.966268 -0.069710 0.247926
vn 0.966268 -0.069710 0.247926
vn 0.966268 -0.069710 0.247926
vn -0.065090 -0.997520 -0.026795
vn -0.065090 -0.997520 -0.026795
vn -0.065090 -0.997520 -0.026795
vn -0.065090 -0.997520 -0.026795
vn -0.966267 0.069710 -0.247927
vn -0.966268 0.069710 -0.247927
vn -0.966268 0.069710 -0.247927
vn -0.966268 0.069710 -0.247927
s off
g group2 group1 Mat3 pPlane7
usemtl lambert5SG
f 45/69/121 46/70/122 47/71/123 48/72/124
f 41/65/125 43/68/126 44/67/127 42/66/128
f 41/61/129 42/62/130 46/70/131 45/69/132
f 42/62/133 44/64/134 47/71/135 46/70/136
f 44/64/137 43/63/138 48/72/139 47/71/140
f 43/63/141 41/61/142 45/69/143 48/72/144
g default
v -8.935095 2.295337 -0.917778
v -7.826995 2.287728 -0.445502
v -8.896152 1.429115 -1.023105
v -7.788053 1.421506 -0.550829
v -8.918215 2.300901 -0.957293
v -7.810116 2.293291 -0.485017
v -7.771173 1.427069 -0.590344
v -8.879272 1.434679 -1.062620
vt 0.669523 0.591205
vt 0.336413 0.591117
vt 0.669448 0.343541
vt 0.336340 0.343448
vt 0.870614 0.459445
vt 0.738084 0.459445
vt 0.738084 0.555546
vt 0.870614 0.555547
vt 0.661805 0.583340
vt 0.343601 0.582715
vt 0.344054 0.351314
vt 0.662261 0.351944
vn 0.389579 0.128407 -0.911998
vn 0.389579 0.128407 -0.911998
vn 0.389579 0.128407 -0.911998
vn 0.389579 0.128407 -0.911998
vn -0.389578 -0.128407 0.911998
vn -0.389578 -0.128407 0.911998
vn -0.389578 -0.128407 0.911998
vn -0.389578 -0.128407 0.911998
vn -0.044584 0.991702 0.120581
vn -0.044584 0.991702 0.120581
vn -0.044584 0.991702 0.120581
vn -0.044584 0.991702 0.120581
vn 0.919918 -0.006314 0.392060
vn 0.919918 -0.006314 0.392060
vn 0.919918 -0.006314 0.392060
vn 0.919918 -0.006314 0.392060
vn 0.044583 -0.991701 -0.120587
vn 0.044583 -0.991701 -0.120587
vn 0.044583 -0.991701 -0.120587
vn 0.044583 -0.991701 -0.120587
vn -0.919910 0.006319 -0.392079
vn -0.919910 0.006319 -0.392079
vn -0.919910 0.006319 -0.392079
vn -0.919910 0.006319 -0.392079
s off
g group2 group1 Mat3 mainpc1
usemtl lambert5SG
f 53/81/145 54/82/146 55/83/147 56/84/148
f 49/77/149 51/80/150 52/79/151 50/78/152
f 49/73/153 50/74/154 54/82/155 53/81/156
f 50/74/157 52/76/158 55/83/159 54/82/160
f 52/76/161 51/75/162 56/84/163 55/83/164
f 51/75/165 49/73/166 53/81/167 56/84/168
g default
v -8.871725 3.705103 -0.468467
v -7.784228 3.705103 -0.107412
v -8.850759 2.876868 -0.531620
v -7.763261 2.876868 -0.170566
v -8.858780 3.708404 -0.507458
v -7.771283 3.708404 -0.146403
v -7.750316 2.880169 -0.209557
v -8.837813 2.880169 -0.570611
vt 0.634176 0.826796
vt 0.317299 0.826711
vt 0.634105 0.591201
vt 0.317230 0.591113
vt 0.870614 0.459445
vt 0.738084 0.459445
vt 0.738084 0.555547
vt 0.870614 0.555547
vt 0.626834 0.819314
vt 0.324137 0.818719
vt 0.324568 0.598595
vt 0.627268 0.599194
vn 0.314081 0.080085 -0.946012
vn 0.314081 0.080085 -0.946012
vn 0.314081 0.080085 -0.946012
vn 0.314081 0.080085 -0.946012
vn -0.314081 -0.080085 0.946012
vn -0.314081 -0.080085 0.946012
vn -0.314081 -0.080085 0.946012
vn -0.314081 -0.080085 0.946012
vn -0.025235 0.996788 0.076005
vn -0.025235 0.996788 0.076005
vn -0.025235 0.996788 0.076005
vn -0.025235 0.996788 0.076005
vn 0.949062 0.000001 0.315091
vn 0.949062 0.000001 0.315091
vn 0.949062 0.000001 0.315091
vn 0.949062 0.000001 0.315091
vn 0.025235 -0.996788 -0.076005
vn 0.025235 -0.996788 -0.076005
vn 0.025235 -0.996788 -0.076005
vn 0.025235 -0.996788 -0.076005
vn -0.949062 0.000001 -0.315091
vn -0.949062 0.000001 -0.315091
vn -0.949062 0.000001 -0.315091
vn -0.949062 0.000001 -0.315091
s off
g group2 group1 Mat3 pPlane2
usemtl lambert5SG
f 61/93/169 62/94/170 63/95/171 64/96/172
f 57/89/173 59/92/174 60/91/175 58/90/176
f 57/85/177 58/86/178 62/94/179 61/93/180
f 58/86/181 60/88/182 63/95/183 62/94/184
f 60/88/185 59/87/186 64/96/187 63/95/188
f 59/87/189 57/85/190 61/93/191 64/96/192
g default
v -8.562537 4.451902 -0.535568
v -7.784126 4.439621 -0.213192
v -8.617424 3.853341 -0.425840
v -7.839013 3.841060 -0.103464
v -8.551257 4.445833 -0.563036
v -7.772846 4.433552 -0.240661
v -7.827733 3.834991 -0.130933
v -8.606144 3.847271 -0.453308
vt 0.233067 0.999938
vt 0.000051 0.999876
vt 0.233015 0.826693
vt 0.000000 0.826628
vt 0.870614 0.459445
vt 0.738084 0.459445
vt 0.738084 0.555547
vt 0.870614 0.555547
vt 0.227668 0.994436
vt 0.005079 0.993999
vt 0.005396 0.832131
vt 0.227987 0.832571
vn 0.372179 -0.200270 -0.906297
vn 0.372179 -0.200270 -0.906297
vn 0.372179 -0.200270 -0.906297
vn 0.372179 -0.200270 -0.906297
vn -0.372179 0.200269 0.906297
vn -0.372179 0.200269 0.906297
vn -0.372180 0.200269 0.906297
vn -0.372180 0.200269 0.906297
vn 0.089827 0.979637 -0.179564
vn 0.089827 0.979637 -0.179564
vn 0.089827 0.979637 -0.179564
vn 0.089827 0.979637 -0.179564
vn 0.923805 -0.014578 0.382585
vn 0.923805 -0.014578 0.382585
vn 0.923805 -0.014578 0.382585
vn 0.923805 -0.014578 0.382585
vn -0.089830 -0.979634 0.179580
vn -0.089830 -0.979634 0.179580
vn -0.089830 -0.979634 0.179580
vn -0.089830 -0.979634 0.179580
vn -0.923805 0.014576 -0.382587
vn -0.923805 0.014576 -0.382587
vn -0.923805 0.014576 -0.382587
vn -0.923804 0.014576 -0.382587
s off
g group2 group1 Mat3 pPlane5
usemtl lambert5SG
f 69/105/193 70/106/194 71/107/195 72/108/196
f 65/101/197 67/104/198 68/103/199 66/102/200
f 65/97/201 66/98/202 70/106/203 69/105/204
f 66/98/205 68/100/206 71/107/207 70/106/208
f 68/100/209 67/99/210 72/108/211 71/107/212
f 67/99/213 65/97/214 69/105/215 72/108/216
g default
v -7.824121 3.951654 -0.196636
v -6.169142 3.837811 -0.004599
v -7.901555 2.744161 -0.245141
v -6.246576 2.630317 -0.053104
v -7.817070 3.953597 -0.256257
v -6.162090 3.839753 -0.064220
v -6.239524 2.632260 -0.112725
v -7.894503 2.746104 -0.304762
vt 0.461912 0.343480
vt 0.000101 0.343358
vt 0.461809 0.000129
vt 0.000000 0.000000
vt 0.870614 0.459445
vt 0.738084 0.459445
vt 0.738084 0.555547
vt 0.870614 0.555547
vt 0.451213 0.332576
vt 0.010066 0.331711
vt 0.010694 0.010905
vt 0.451845 0.011778
vn 0.117397 0.032342 -0.992558
vn 0.117397 0.032342 -0.992558
vn 0.117397 0.032342 -0.992558
vn 0.117397 0.032342 -0.992558
vn -0.117397 -0.032342 0.992558
vn -0.117397 -0.032342 0.992558
vn -0.117397 -0.032342 0.992558
vn -0.117397 -0.032342 0.992558
vn 0.063945 0.997149 0.040055
vn 0.063945 0.997149 0.040055
vn 0.063945 0.997149 0.040055
vn 0.063945 0.997149 0.040055
vn 0.991024 -0.068172 0.114996
vn 0.991024 -0.068172 0.114996
vn 0.991024 -0.068172 0.114996
vn 0.991024 -0.068172 0.114996
vn -0.063945 -0.997149 -0.040053
vn -0.063945 -0.997149 -0.040053
vn -0.063945 -0.997149 -0.040053
vn -0.063945 -0.997149 -0.040053
vn -0.991024 0.068172 -0.114997
vn -0.991024 0.068172 -0.114997
vn -0.991024 0.068172 -0.114997
vn -0.991024 0.068172 -0.114997
s off
g group2 group1 Mat3 pPlane1
usemtl lambert5SG
f 77/117/217 78/118/218 79/119/219 80/120/220
f 73/113/221 75/116/222 76/115/223 74/114/224
f 73/109/225 74/110/226 78/118/227 77/117/228
f 74/110/229 76/112/230 79/119/231 78/118/232
f 76/112/233 75/111/234 80/120/235 79/119/236
f 75/111/237 73/109/238 77/117/239 80/120/240
g default
v -7.324129 4.492831 -0.322062
v -6.484714 4.438174 -0.370986
v -7.360538 3.885308 -0.268046
v -6.521123 3.830651 -0.316971
v -7.326053 4.490267 -0.352200
v -6.486637 4.435610 -0.401125
v -6.523046 3.828086 -0.347109
v -7.362462 3.882744 -0.298185
vt 0.466211 1.000000
vt 0.233196 0.999938
vt 0.466159 0.826755
vt 0.233145 0.826690
vt 0.870614 0.459445
vt 0.738084 0.459445
vt 0.738084 0.555546
vt 0.870614 0.555547
vt 0.460813 0.994498
vt 0.238224 0.994061
vt 0.238540 0.832193
vt 0.461132 0.832633
vn -0.063466 -0.084609 -0.994391
vn -0.063466 -0.084609 -0.994391
vn -0.063466 -0.084609 -0.994391
vn -0.063466 -0.084609 -0.994391
vn 0.063466 0.084609 0.994391
vn 0.063466 0.084609 0.994391
vn 0.063466 0.084609 0.994391
vn 0.063466 0.084609 0.994391
vn 0.059590 0.994301 -0.088398
vn 0.059590 0.994301 -0.088398
vn 0.059590 0.994301 -0.088398
vn 0.059590 0.994301 -0.088398
vn 0.996203 -0.064866 -0.058063
vn 0.996203 -0.064866 -0.058063
vn 0.996203 -0.064866 -0.058063
vn 0.996203 -0.064866 -0.058063
vn -0.059590 -0.994300 0.088406
vn -0.059590 -0.994300 0.088406
vn -0.059590 -0.994300 0.088406
vn -0.059590 -0.994300 0.088406
vn -0.996203 0.064866 0.058062
vn -0.996203 0.064866 0.058062
vn -0.996203 0.064866 0.058062
vn -0.996203 0.064866 0.058062
s off
g group2 group1 Mat3 pPlane8
usemtl lambert5SG
f 85/129/241 86/130/242 87/131/243 88/132/244
f 81/125/245 83/128/246 84/127/247 82/126/248
f 81/121/249 82/122/250 86/130/251 85/129/252
f 82/122/253 84/124/254 87/131/255 86/130/256
f 84/124/257 83/123/258 88/132/259 87/131/260
f 83/123/261 81/121/262 85/129/263 88/132/264
