# This file uses centimeters as units for non-parametric coordinates.

mtllib base_plate.mtl
g default
v -3.111291 -0.395170 3.283832
v -3.283832 -0.395170 3.111291
v -3.283832 -0.024925 3.111291
v -3.111291 -0.024925 3.283832
v 3.283832 -0.395170 3.111291
v 3.111291 -0.395170 3.283832
v 3.111291 -0.024925 3.283832
v 3.283832 -0.024925 3.111291
v -3.111291 -0.024925 -3.283832
v -3.283832 -0.024925 -3.111291
v -3.283832 -0.395170 -3.111291
v -3.111291 -0.395170 -3.283832
v 3.283832 -0.024925 -3.111291
v 3.111291 -0.024925 -3.283832
v 3.111291 -0.395170 -3.283832
v 3.283832 -0.395170 -3.111291
v -2.551092 -0.024925 2.378551
v -2.378551 -0.024925 2.551092
v 2.378551 -0.024925 2.551092
v 2.551092 -0.024925 2.378551
v 2.551092 -0.024925 -2.378551
v 2.378551 -0.024925 -2.551092
v -2.378551 -0.024925 -2.551092
v -2.551092 -0.024925 -2.378551
v -2.415817 -0.024925 2.243276
v -2.243276 -0.024925 2.415817
v 2.243276 -0.024925 2.415817
v 2.415817 -0.024925 2.243276
v 2.415817 -0.024925 -2.243276
v 2.243276 -0.024925 -2.415817
v -2.243276 -0.024925 -2.415817
v -2.415817 -0.024925 -2.243276
v -2.415817 -0.397213 2.243276
v -2.243276 -0.397213 2.415817
v 2.243276 -0.397213 2.415817
v 2.415817 -0.397213 2.243276
v 2.415817 -0.397213 -2.243276
v 2.243276 -0.397213 -2.415817
v -2.243276 -0.397213 -2.415817
v -2.415817 -0.397213 -2.243276
vt 0.079155 0.550704
vt 0.043569 0.550704
vt 0.043569 0.017590
vt 0.079155 0.017590
vt 0.043569 0.565487
vt 0.079155 0.565486
vt 0.079155 0.002808
vt 0.043569 0.002808
vt 0.037578 0.550704
vt 0.001992 0.550704
vt 0.001992 0.017590
vt 0.037578 0.017590
vt 0.037578 0.565486
vt 0.001992 0.565486
vt 0.001992 0.002808
vt 0.037578 0.002808
vt 0.998008 0.439532
vt 0.998008 0.823913
vt 0.962226 0.823913
vt 0.962226 0.439532
vt 0.998008 0.838696
vt 0.962226 0.838696
vt 0.998008 0.424750
vt 0.962226 0.424750
vt 0.998008 0.017821
vt 0.998008 0.402202
vt 0.962226 0.402202
vt 0.962226 0.017821
vt 0.998008 0.416984
vt 0.962226 0.416984
vt 0.998008 0.003039
vt 0.962226 0.003039
vt 0.187798 0.517941
vt 0.174240 0.504384
vt 0.231815 0.446809
vt 0.245373 0.460366
vt 0.174240 0.015444
vt 0.231815 0.073019
vt 0.242445 0.436179
vt 0.256002 0.449737
vt 0.676737 0.517941
vt 0.619162 0.460366
vt 0.187798 0.001886
vt 0.245373 0.059462
vt 0.242445 0.083648
vt 0.608533 0.449737
vt 0.690295 0.504384
vt 0.632719 0.446809
vt 0.676737 0.001886
vt 0.619162 0.059462
vt 0.256002 0.070091
vt 0.622090 0.436179
vt 0.690295 0.015444
vt 0.632719 0.073019
vt 0.608533 0.070091
vt 0.622090 0.083648
vt 0.122712 0.535200
vt 0.087126 0.535200
vt 0.087126 0.002086
vt 0.122712 0.002086
vt 0.130683 0.535525
vt 0.130683 0.002411
vt 0.166269 0.002411
vt 0.166269 0.535525
vt 0.603870 0.910407
vt 0.603870 0.526026
vt 0.639653 0.526026
vt 0.639653 0.910407
vt 0.683210 0.526026
vt 0.683210 0.910407
vt 0.647427 0.910407
vt 0.647427 0.526026
vn -0.707107 0.000000 0.707107
vn -0.707107 0.000000 0.707107
vn -0.707107 0.000000 0.707107
vn -0.707107 0.000000 0.707107
vn 0.000000 1.000000 0.000000
vn 0.000000 1.000000 0.000000
vn 0.000000 1.000000 0.000000
vn 0.000000 1.000000 0.000000
vn 0.707107 0.000000 0.707107
vn 0.707107 0.000000 0.707107
vn 0.707107 0.000000 0.707107
vn 0.707107 0.000000 0.707107
vn 0.000000 1.000000 0.000000
vn 0.000000 1.000000 0.000000
vn 0.000000 1.000000 0.000000
vn 0.000000 1.000000 0.000000
vn 0.000000 1.000000 -0.000000
vn 0.000000 1.000000 0.000000
vn 0.000000 1.000000 0.000000
vn 0.000000 1.000000 -0.000000
vn -0.707107 0.000000 -0.707107
vn -0.707107 0.000000 -0.707107
vn -0.707107 0.000000 -0.707107
vn -0.707107 0.000000 -0.707107
vn 0.000000 1.000000 0.000000
vn 0.000000 1.000000 -0.000000
vn 0.000000 1.000000 -0.000000
vn 0.000000 1.000000 -0.000000
vn 0.707107 0.000000 -0.707107
vn 0.707107 0.000000 -0.707107
vn 0.707107 0.000000 -0.707107
vn 0.707107 0.000000 -0.707107
vn 0.000000 1.000000 0.000000
vn 0.000000 1.000000 0.000000
vn 0.000000 1.000000 0.000000
vn 0.000000 1.000000 0.000000
vn 0.000000 1.000000 -0.000000
vn 0.000000 1.000000 -0.000000
vn 0.000000 1.000000 0.000000
vn 0.000000 1.000000 -0.000000
vn 0.707107 0.000000 -0.707107
vn 0.707107 0.000000 -0.707107
vn 0.707107 0.000000 -0.707107
vn 0.707107 0.000000 -0.707107
vn -0.707107 0.000000 -0.707107
vn -0.707107 0.000000 -0.707107
vn -0.707107 0.000000 -0.707107
vn -0.707107 0.000000 -0.707107
vn -0.707107 0.000000 0.707107
vn -0.707107 0.000000 0.707107
vn -0.707107 0.000000 0.707107
vn -0.707107 0.000000 0.707107
vn 0.707107 0.000000 0.707107
vn 0.707107 0.000000 0.707107
vn 0.707107 0.000000 0.707107
vn 0.707107 0.000000 0.707107
vn 0.000000 0.000000 1.000000
vn 0.000000 0.000000 1.000000
vn 0.000000 0.000000 1.000000
vn 0.000000 0.000000 1.000000
vn 0.000000 0.000000 -1.000000
vn 0.000000 0.000000 -1.000000
vn 0.000000 0.000000 -1.000000
vn 0.000000 0.000000 -1.000000
vn 1.000000 0.000000 0.000000
vn 1.000000 0.000000 0.000000
vn 1.000000 0.000000 0.000000
vn 1.000000 0.000000 0.000000
vn -1.000000 0.000000 0.000000
vn -1.000000 0.000000 0.000000
vn -1.000000 0.000000 0.000000
vn -1.000000 0.000000 0.000000
vn 0.000000 0.000000 -1.000000
vn 0.000000 0.000000 -1.000000
vn 0.000000 0.000000 -1.000000
vn 0.000000 0.000000 -1.000000
vn -1.000000 0.000000 0.000000
vn -1.000000 0.000000 0.000000
vn -1.000000 0.000000 0.000000
vn -1.000000 0.000000 0.000000
vn 0.000000 0.000000 1.000000
vn 0.000000 0.000000 1.000000
vn 0.000000 0.000000 1.000000
vn 0.000000 0.000000 1.000000
vn 1.000000 0.000000 0.000000
vn 1.000000 0.000000 0.000000
vn 1.000000 0.000000 0.000000
vn 1.000000 0.000000 0.000000
s off
g pCube2 null3
usemtl initialShadingGroup
f 2/11/1 1/15/2 4/16/3 3/12/4
s 1
f 3/33/5 4/34/6 18/35/7 17/36/8
s off
f 6/5/9 5/2/10 8/1/11 7/6/12
s 1
f 7/37/13 8/43/14 20/44/15 19/38/16
f 9/47/17 10/41/18 24/42/19 23/48/20
s off
f 10/9/21 9/13/22 12/14/23 11/10/24
s 1
f 13/49/25 14/53/26 22/54/27 21/50/28
s off
f 14/7/29 13/4/30 16/3/31 15/8/32
s 1
f 17/36/8 18/35/7 26/39/33 25/40/34
f 19/38/16 20/44/15 28/51/35 27/45/36
f 21/50/28 22/54/27 30/56/37 29/55/38
f 23/48/20 24/42/19 32/46/39 31/52/40
s off
f 25/26/41 26/29/42 34/30/43 33/27/44
f 27/23/45 28/17/46 36/20/47 35/24/48
f 29/18/49 30/21/50 38/22/51 37/19/52
f 31/31/53 32/25/54 40/28/55 39/32/56
f 4/57/57 1/58/58 6/59/59 7/60/60
f 9/61/61 14/62/62 15/63/63 12/64/64
f 8/1/65 5/2/66 16/3/67 13/4/68
f 10/9/69 11/10/70 2/11/71 3/12/72
s 1
f 4/34/6 7/37/13 19/38/16 18/35/7
f 8/43/14 13/49/25 21/50/28 20/44/15
f 14/53/26 9/47/17 23/48/20 22/54/27
f 10/41/18 3/33/5 17/36/8 24/42/19
f 18/35/7 19/38/16 27/45/36 26/39/33
f 20/44/15 21/50/28 29/55/38 28/51/35
f 22/54/27 23/48/20 31/52/40 30/56/37
f 24/42/19 17/36/8 25/40/34 32/46/39
s off
f 26/65/73 27/66/74 35/67/75 34/68/76
f 28/17/77 29/18/78 37/19/79 36/20/80
f 30/69/81 31/70/82 39/71/83 38/72/84
f 32/25/85 25/26/86 33/27/87 40/28/88
