# This file uses centimeters as units for non-parametric coordinates.

mtllib base.mtl
g default
v 7.051545 0.047032 0.268953
v 7.098885 0.047032 0.316292
v 7.051545 0.157848 0.265842
v 7.101995 0.157848 0.316292
v 9.354864 0.047032 0.268953
v 9.307524 0.047032 0.316292
v 9.354864 0.157848 0.265842
v 9.304414 0.157848 0.316292
v 7.672760 0.615556 -0.162693
v 7.610819 0.615556 -0.120540
v 7.350225 0.457368 -0.187638
v 7.409303 0.457368 -0.234262
v 8.795590 0.615556 -0.120540
v 8.733649 0.615556 -0.162693
v 8.997106 0.457368 -0.234262
v 9.056184 0.457368 -0.187638
v 7.122623 0.183157 0.249237
v 7.182852 0.183157 0.296771
v 7.098885 0.047032 -0.316292
v 7.051545 0.047032 -0.268953
v 7.101995 0.157848 -0.316292
v 7.051545 0.157848 -0.265842
v 9.354864 0.047032 -0.268953
v 9.307524 0.047032 -0.316292
v 9.354864 0.157848 -0.265842
v 9.304414 0.157848 -0.316292
v 9.283786 0.183157 0.249237
v 9.223557 0.183157 0.296771
v 7.350225 0.457368 0.187638
v 7.409303 0.457368 0.234262
v 7.182852 0.183157 -0.296771
v 7.122623 0.183157 -0.249237
v 9.283786 0.183157 -0.249237
v 9.223557 0.183157 -0.296771
v 9.056184 0.457368 0.187638
v 8.997106 0.457368 0.234262
v 7.610819 0.615556 0.120540
v 7.672760 0.615556 0.162693
v 8.733649 0.615556 0.162693
v 8.795590 0.615556 0.120540
v 7.662988 0.615556 0.069166
v 7.710372 0.615556 0.116550
v 8.696037 0.615556 0.116550
v 8.743421 0.615556 0.069166
v 8.743421 0.615556 -0.069166
v 8.696037 0.615556 -0.116550
v 7.710372 0.615556 -0.116550
v 7.662988 0.615556 -0.069166
v 7.662988 0.491810 0.069211
v 7.710328 0.491810 0.116550
v 8.743421 0.491810 0.069211
v 8.696081 0.491810 0.116550
v 8.696081 0.491810 -0.116550
v 8.743421 0.491810 -0.069211
v 7.662988 0.491810 -0.069211
v 7.710328 0.491810 -0.116550
vt 0.949700 0.080347
vt 0.965662 0.080347
vt 0.965662 0.143138
vt 0.948651 0.143138
vt 0.959080 0.157478
vt 0.943052 0.157478
vt 0.769376 0.143138
vt 0.768327 0.080347
vt 0.938003 0.312851
vt 0.922282 0.312851
vt 0.774974 0.157478
vt 0.752365 0.080347
vt 0.752365 0.143138
vt 0.913871 0.402484
vt 0.899658 0.402484
vt 0.795745 0.312851
vt 0.758947 0.157478
vt 0.818369 0.402484
vt 0.780024 0.312851
vt 0.804156 0.402484
vt 0.136137 0.675871
vt 0.152099 0.675871
vt 0.153148 0.738662
vt 0.136137 0.738662
vt 0.333472 0.675871
vt 0.332423 0.738662
vt 0.158746 0.753002
vt 0.142719 0.753002
vt 0.349434 0.675871
vt 0.349434 0.738662
vt 0.326824 0.753002
vt 0.179517 0.908375
vt 0.163796 0.908375
vt 0.342852 0.753002
vt 0.306054 0.908375
vt 0.202141 0.998008
vt 0.187928 0.998008
vt 0.321775 0.908375
vt 0.283430 0.998008
vt 0.297643 0.998008
vt 0.269080 0.128741
vt 0.269080 0.146517
vt 0.207967 0.146517
vt 0.207967 0.128758
vt 0.269080 0.076845
vt 0.207967 0.076829
vt 0.269080 0.059069
vt 0.207967 0.059069
vt 0.875857 0.407732
vt 0.875857 0.425508
vt 0.814744 0.425492
vt 0.814744 0.407732
vt 0.875857 0.477404
vt 0.814744 0.477421
vt 0.875857 0.495180
vt 0.814744 0.495180
vt 0.508330 0.393062
vt 0.487725 0.375927
vt 0.487725 0.019127
vt 0.508330 0.001992
vt 0.568579 0.001992
vt 0.589184 0.019127
vt 0.589184 0.375927
vt 0.568579 0.393062
vt 0.546324 0.412046
vt 0.580598 0.392872
vt 0.622369 0.409021
vt 0.583842 0.423689
vt 0.776618 0.392872
vt 0.734847 0.409021
vt 0.546324 0.740440
vt 0.583842 0.728797
vt 0.810893 0.412046
vt 0.773375 0.423689
vt 0.580598 0.759614
vt 0.622369 0.743465
vt 0.810893 0.740440
vt 0.773375 0.728797
vt 0.776618 0.759614
vt 0.734847 0.743465
vt 0.048185 0.746398
vt 0.001927 0.747444
vt 0.001927 0.004213
vt 0.048185 0.005260
vt 0.058749 0.032469
vt 0.058749 0.719188
vt 0.173211 0.108673
vt 0.173211 0.642985
vt 0.239242 0.197329
vt 0.239242 0.554329
vt 0.434939 0.745597
vt 0.434939 0.004460
vt 0.481197 0.003413
vt 0.481196 0.746644
vt 0.424375 0.718388
vt 0.424375 0.031669
vt 0.309913 0.642185
vt 0.309913 0.107872
vt 0.243882 0.553528
vt 0.243882 0.196528
vt 0.595471 0.388274
vt 0.595471 0.004272
vt 0.668149 0.004254
vt 0.668149 0.388291
vt 0.747540 0.004633
vt 0.747540 0.388636
vt 0.674863 0.388653
vt 0.674863 0.004616
vn 0.000000 1.000000 -0.000000
vn 0.000000 1.000000 -0.000000
vn 0.000000 1.000000 -0.000000
vn 0.000000 1.000000 -0.000000
vn 0.000000 1.000000 -0.000000
vn 0.000000 1.000000 -0.000000
vn 0.000000 1.000000 -0.000000
vn 0.000000 1.000000 -0.000000
vn -0.706969 0.019846 0.706967
vn -0.706969 0.019846 0.706966
vn -0.706969 0.019846 0.706967
vn -0.706969 0.019846 0.706967
vn -0.321156 0.945732 0.049492
vn -0.244155 0.929693 0.275789
vn -0.244155 0.929693 0.275789
vn -0.329253 0.943989 0.021820
vn 0.706969 0.019846 0.706966
vn 0.706969 0.019846 0.706967
vn 0.706969 0.019846 0.706967
vn 0.706969 0.019846 0.706966
vn 0.244155 0.929693 0.275789
vn 0.321156 0.945732 0.049492
vn 0.329253 0.943989 0.021820
vn 0.244155 0.929693 0.275789
vn 0.000000 1.000000 -0.000000
vn 0.000000 1.000000 0.000000
vn 0.000000 1.000000 0.000000
vn 0.000000 1.000000 -0.000000
vn -0.504817 0.860741 -0.065452
vn -0.354925 0.799964 -0.483824
vn -0.455877 0.665580 -0.590914
vn -0.680572 0.726949 -0.091469
vn -0.509779 0.568237 -0.645935
vn -0.509779 0.568237 -0.645935
vn 0.000000 1.000000 0.000000
vn 0.000000 1.000000 -0.000000
vn 0.000000 1.000000 -0.000000
vn 0.000000 1.000000 0.000000
vn 0.354925 0.799964 -0.483824
vn 0.504817 0.860741 -0.065452
vn 0.680572 0.726949 -0.091469
vn 0.455877 0.665580 -0.590914
vn 0.509779 0.568237 -0.645935
vn 0.509779 0.568237 -0.645935
vn -0.509779 0.568237 0.645935
vn -0.509779 0.568237 0.645935
vn -0.455877 0.665580 0.590914
vn -0.680572 0.726949 0.091469
vn -0.706969 0.019846 -0.706966
vn -0.706969 0.019846 -0.706967
vn -0.706969 0.019846 -0.706967
vn -0.706969 0.019846 -0.706966
vn -0.244155 0.929693 -0.275789
vn -0.321156 0.945732 -0.049492
vn -0.329253 0.943989 -0.021820
vn -0.244155 0.929693 -0.275789
vn 0.706969 0.019846 -0.706967
vn 0.706969 0.019846 -0.706966
vn 0.706969 0.019846 -0.706967
vn 0.706969 0.019846 -0.706967
vn 0.321156 0.945732 -0.049492
vn 0.244155 0.929693 -0.275789
vn 0.244155 0.929693 -0.275789
vn 0.329253 0.943989 -0.021820
vn 0.509779 0.568237 0.645935
vn 0.509779 0.568237 0.645935
vn 0.680572 0.726949 0.091469
vn 0.455877 0.665580 0.590914
vn -0.354925 0.799964 0.483824
vn -0.504817 0.860741 0.065452
vn 0.504817 0.860741 0.065452
vn 0.354925 0.799964 0.483823
vn 0.000000 1.000000 -0.000000
vn 0.000000 1.000000 0.000000
vn 0.000000 1.000000 0.000000
vn 0.000000 1.000000 -0.000000
vn 0.000000 1.000000 0.000000
vn 0.000000 1.000000 -0.000000
vn 0.000000 1.000000 -0.000000
vn 0.000000 1.000000 0.000000
vn 0.707107 -0.000254 -0.707107
vn 0.707107 -0.000254 -0.707107
vn 0.707107 -0.000254 -0.707107
vn 0.707107 -0.000254 -0.707107
vn -0.707107 -0.000254 -0.707107
vn -0.707107 -0.000254 -0.707107
vn -0.707107 -0.000254 -0.707107
vn -0.707107 -0.000254 -0.707107
vn -0.707107 -0.000254 0.707107
vn -0.707107 -0.000254 0.707107
vn -0.707107 -0.000254 0.707107
vn -0.707107 -0.000254 0.707107
vn 0.707107 -0.000254 0.707107
vn 0.707107 -0.000254 0.707107
vn 0.707107 -0.000254 0.707107
vn 0.707107 -0.000254 0.707107
vn 0.000000 0.000000 1.000000
vn 0.000000 0.000000 1.000000
vn 0.000000 0.000000 1.000000
vn 0.000000 0.000000 1.000000
vn 0.000000 0.000000 -1.000000
vn 0.000000 0.000000 -1.000000
vn 0.000000 0.000000 -1.000000
vn 0.000000 0.000000 -1.000000
vn 1.000000 0.000000 0.000000
vn 1.000000 0.000000 0.000000
vn 1.000000 0.000000 0.000000
vn 1.000000 0.000000 0.000000
vn -1.000000 0.000000 0.000000
vn -1.000000 0.000000 0.000000
vn -1.000000 0.000000 0.000000
vn -1.000000 0.000000 0.000000
vn 0.000000 0.292912 -0.956139
vn 0.000000 0.292912 -0.956139
vn 0.000000 0.610742 -0.791829
vn 0.000000 0.610742 -0.791829
vn 0.000000 0.610743 0.791829
vn 0.000000 0.610743 0.791829
vn 0.000000 0.292912 0.956139
vn 0.000000 0.292912 0.956139
vn -0.769470 0.638682 0.000000
vn -0.769470 0.638682 0.000000
vn 0.000000 0.267917 -0.963442
vn 0.000000 0.267917 -0.963442
vn 0.769470 0.638682 0.000000
vn 0.769470 0.638682 0.000000
vn 0.000000 0.267917 0.963442
vn 0.000000 0.267917 0.963442
vn 0.000000 0.412207 -0.911090
vn 0.000000 0.412207 -0.911090
vn 0.000000 0.412207 0.911090
vn 0.000000 0.412207 0.911090
vn 0.000000 0.000000 -1.000000
vn 0.000000 0.000000 -1.000000
vn 0.000000 0.000000 -1.000000
vn 0.000000 0.000000 -1.000000
vn -1.000000 -0.000000 0.000000
vn -1.000000 -0.000000 0.000000
vn -1.000000 -0.000000 0.000000
vn -1.000000 -0.000000 0.000000
vn 0.000000 0.000000 1.000000
vn 0.000000 0.000000 1.000000
vn 0.000000 0.000000 1.000000
vn 0.000000 0.000000 1.000000
vn 1.000000 -0.000000 0.000000
vn 1.000000 -0.000000 0.000000
vn 1.000000 -0.000000 0.000000
vn 1.000000 -0.000000 0.000000
s off
g pCube1
usemtl initialShadingGroup
f 49/57/1 50/58/2 52/59/3 51/60/4 54/61/5 53/62/6 56/63/7 55/64/8
f 1/1/9 2/2/10 4/3/11 3/4/12
s 1
f 3/4/13 4/3/14 18/5/15 17/6/16
s off
f 6/21/17 5/22/18 7/23/19 8/24/20
s 2
f 8/24/21 7/23/22 27/27/23 28/28/24
s 3
f 9/65/25 10/66/26 48/67/27 47/68/28
s 4
f 10/18/29 9/20/30 12/19/31 11/16/32
f 11/16/32 12/19/31 31/17/33 32/11/34
s 3
f 13/75/35 14/71/36 46/72/37 45/76/38
s 5
f 14/40/39 13/39/40 16/35/41 15/38/42
f 15/38/42 16/35/41 33/31/43 34/34/44
s 4
f 17/6/45 18/5/46 30/9/47 29/10/48
s off
f 19/12/49 20/8/50 22/7/51 21/13/52
s 1
f 21/13/53 22/7/54 32/11/55 31/17/56
s off
f 23/25/57 24/29/58 26/30/59 25/26/60
s 2
f 25/26/61 26/30/62 34/34/63 33/31/64
s 5
f 28/28/65 27/27/66 35/32/67 36/33/68
s 4
f 29/10/48 30/9/47 38/14/69 37/15/70
s 5
f 36/33/68 35/32/67 40/36/71 39/37/72
s 3
f 37/69/73 38/73/74 42/74/75 41/70/76
f 39/77/77 40/79/78 44/80/79 43/78/80
s off
f 41/41/81 42/42/82 50/43/83 49/44/84
f 43/49/85 44/50/86 51/51/87 52/52/88
f 45/53/89 46/55/90 53/56/91 54/54/92
f 47/47/93 48/45/94 55/46/95 56/48/96
f 4/81/97 2/82/98 6/83/99 8/84/100
f 21/91/101 26/92/102 24/93/103 19/94/104
f 7/23/105 5/22/106 23/25/107 25/26/108
f 22/7/109 20/8/110 1/1/111 3/4/112
s 1
f 22/7/54 3/4/13 17/6/16 32/11/55
s 9
f 31/95/113 34/96/114 26/92/115 21/91/116
s 2
f 7/23/22 25/26/61 33/31/64 27/27/23
s 10
f 4/81/117 8/84/118 28/85/119 18/86/120
s 4
f 32/11/121 17/6/122 29/10/48 11/16/32
s 9
f 12/97/123 15/98/124 34/96/114 31/95/113
s 5
f 27/27/125 33/31/126 16/35/41 35/32/67
s 10
f 18/86/120 28/85/119 36/87/127 30/88/128
s 4
f 11/16/32 29/10/48 37/15/70 10/18/29
s 9
f 9/99/129 14/100/130 15/98/124 12/97/123
s 5
f 35/32/67 16/35/41 13/39/40 40/36/71
s 10
f 30/88/128 36/87/127 39/89/131 38/90/132
s 3
f 38/73/74 39/77/77 43/78/80 42/74/75
f 40/79/78 13/75/35 45/76/38 44/80/79
f 14/71/36 9/65/25 47/68/28 46/72/37
f 10/66/26 37/69/73 41/70/76 48/67/27
s off
f 42/101/133 43/102/134 52/103/135 50/104/136
f 44/50/137 45/53/138 54/54/139 51/51/140
f 46/105/141 47/106/142 56/107/143 53/108/144
f 48/45/145 41/41/146 49/44/147 55/46/148
