# This file uses centimeters as units for non-parametric coordinates.

mtllib palanca.mtl
g default
v 8.017052 0.523521 0.062619
v 7.924366 0.443951 -0.133145
v 7.842073 0.373303 0.070527
v 8.013588 0.520548 -0.070527
v 7.838609 0.370329 -0.062619
v 7.931294 0.449899 0.133145
v 6.148127 2.525427 0.103669
v 6.214900 2.582751 0.048756
v 6.212202 2.580436 -0.054913
v 6.142733 2.520796 -0.103669
v 6.075961 2.463473 -0.048756
v 6.078658 2.465788 0.054913
v 6.365021 2.261869 -0.103669
v 6.434490 2.321509 -0.054913
v 6.437188 2.323824 0.048756
v 6.370415 2.266501 0.103669
v 6.300946 2.206861 0.054913
v 6.298249 2.204546 -0.048756
v 7.561474 0.867426 -0.118546
v 7.640912 0.935624 -0.062794
v 7.643997 0.938272 0.055753
v 7.567643 0.872722 0.118546
v 7.488204 0.804524 0.062794
v 7.485120 0.801877 -0.055753
v 7.112535 1.390603 -0.113975
v 7.188911 1.456170 -0.060372
v 7.191876 1.458716 0.053603
v 7.118466 1.395694 0.113975
v 7.042091 1.330126 0.060372
v 7.039126 1.327580 -0.053603
v 6.807364 1.746074 -0.113975
v 6.883739 1.811642 -0.060372
v 6.886704 1.814188 0.053603
v 6.813295 1.751166 0.113975
v 6.736919 1.685598 0.060372
v 6.733954 1.683052 -0.053603
v 6.752332 1.811826 -0.082642
v 6.807711 1.859369 -0.043775
v 6.809861 1.861215 0.038867
v 6.756632 1.815518 0.082642
v 6.701254 1.767976 0.043775
v 6.699104 1.766130 -0.038867
v 7.142205 1.357692 -0.082642
v 7.197583 1.405235 -0.043775
v 7.199733 1.407081 0.038867
v 7.146505 1.361384 0.082642
v 7.091127 1.313842 0.043775
v 7.088976 1.311996 -0.038867
v 7.516757 0.921664 -0.077690
v 7.568817 0.966358 -0.041152
v 7.570839 0.968093 0.036538
v 7.520800 0.925135 0.077690
v 7.468740 0.880442 0.041152
v 7.466718 0.878706 -0.036538
v 6.372013 2.255351 -0.082642
v 6.427392 2.302893 -0.043775
v 6.429542 2.304739 0.038867
v 6.376314 2.259043 0.082642
v 6.320935 2.211500 0.043775
v 6.318785 2.209654 -0.038867
v 6.144134 2.526824 0.041817
v 6.171067 2.549946 0.019666
v 6.169979 2.549012 -0.022150
v 6.141958 2.524956 -0.041817
v 6.115024 2.501833 -0.019666
v 6.116112 2.502767 0.022150
v 6.054405 2.633062 0.074498
v 6.102389 2.674255 0.035037
v 6.100451 2.672591 -0.039461
v 6.052467 2.631398 0.000000
v 6.050529 2.629734 -0.074498
v 6.002546 2.588540 -0.035037
v 6.004484 2.590204 0.039462
v 7.601525 0.820006 -0.133145
v 7.690746 0.896602 -0.070527
v 7.694210 0.899576 0.062619
v 7.608453 0.825953 0.133145
v 7.519232 0.749357 0.070527
v 7.515768 0.746383 -0.062619
v 7.594103 0.829260 -0.121556
v 7.675559 0.899189 -0.064388
v 7.678721 0.901904 0.057168
v 7.600429 0.834690 0.121556
v 7.518974 0.764762 0.064388
v 7.515811 0.762046 -0.057168
vt 0.029667 0.003093
vt 0.085228 0.003093
vt 0.085228 0.209795
vt 0.029667 0.209795
vt 0.113009 0.003093
vt 0.113009 0.209795
vt 0.082810 0.214740
vt 0.032085 0.214740
vt 0.001886 0.003093
vt 0.001886 0.209795
vt 0.082182 0.235682
vt 0.032713 0.235682
vt 0.073657 0.264992
vt 0.041238 0.264992
vt 0.074691 0.504721
vt 0.040204 0.504721
vt 0.081228 0.523195
vt 0.033667 0.523195
vt 0.081228 0.718584
vt 0.033667 0.718584
vt 0.105009 0.523195
vt 0.105009 0.718584
vt 0.074691 0.754341
vt 0.040204 0.754341
vt 0.009886 0.523195
vt 0.009886 0.718584
vt 0.074810 0.998008
vt 0.040324 0.998008
vt 0.091934 0.754341
vt 0.092054 0.998008
vt 0.022961 0.754341
vt 0.023081 0.998008
vt 0.146250 0.003093
vt 0.201811 0.003093
vt 0.201811 0.209795
vt 0.146250 0.209795
vt 0.229592 0.003093
vt 0.229592 0.209795
vt 0.199393 0.214740
vt 0.148668 0.214740
vt 0.118469 0.003093
vt 0.118469 0.209795
vt 0.198765 0.235682
vt 0.149296 0.235682
vt 0.190240 0.264992
vt 0.157820 0.264992
vt 0.191274 0.504721
vt 0.156787 0.504721
vt 0.173228 0.523195
vt 0.150249 0.523195
vt 0.173228 0.718584
vt 0.150249 0.718584
vt 0.246175 0.523195
vt 0.246175 0.718584
vt 0.191274 0.754341
vt 0.156787 0.754341
vt 0.126469 0.523195
vt 0.126469 0.718584
vt 0.191154 0.998008
vt 0.156667 0.998008
vt 0.208517 0.754341
vt 0.208397 0.998008
vt 0.139544 0.754341
vt 0.139424 0.998008
vt 0.734118 0.003512
vt 0.777379 0.003512
vt 0.777379 0.145834
vt 0.734118 0.145834
vt 0.799010 0.003512
vt 0.799010 0.145834
vt 0.712488 0.003512
vt 0.712488 0.145834
vt 0.643443 0.002688
vt 0.686704 0.002688
vt 0.686704 0.145010
vt 0.643443 0.145010
vt 0.708335 0.002688
vt 0.708335 0.145010
vt 0.621812 0.002688
vt 0.621812 0.145010
vt 0.913609 0.180470
vt 0.931059 0.180470
vt 0.937878 0.238464
vt 0.906790 0.238464
vt 0.772972 0.214249
vt 0.790422 0.214249
vt 0.797241 0.272242
vt 0.766153 0.272242
vt 0.616260 0.265413
vt 0.616260 0.234324
vt 0.643183 0.218781
vt 0.643183 0.249868
vt 0.670106 0.234324
vt 0.670106 0.265413
vt 0.643183 0.280957
vt 0.609238 0.223655
vt 0.639104 0.206412
vt 0.646778 0.210679
vt 0.609313 0.232310
vt 0.639104 0.171925
vt 0.646778 0.167418
vt 0.579372 0.206412
vt 0.571848 0.210679
vt 0.609238 0.154682
vt 0.609313 0.145788
vt 0.579372 0.171925
vt 0.571848 0.167418
vt 0.651420 0.215614
vt 0.651420 0.172353
vt 0.673773 0.185259
vt 0.673773 0.202709
vt 0.688886 0.150722
vt 0.688886 0.176534
vt 0.688886 0.237245
vt 0.688886 0.211434
vt 0.726351 0.172353
vt 0.703998 0.185259
vt 0.726351 0.215614
vt 0.703998 0.202709
vt 0.399753 0.028978
vt 0.442594 0.028978
vt 0.427829 0.058289
vt 0.399753 0.058289
vt 0.399753 0.008037
vt 0.443682 0.008037
vt 0.429619 0.298017
vt 0.399753 0.298017
vt 0.356911 0.028978
vt 0.371676 0.058289
vt 0.399753 0.003092
vt 0.447870 0.003092
vt 0.355823 0.008037
vt 0.440942 0.316492
vt 0.399753 0.316492
vt 0.369887 0.298017
vt 0.351635 0.003092
vt 0.358563 0.316492
vt 0.495980 0.291019
vt 0.453138 0.291019
vt 0.467904 0.261708
vt 0.495980 0.261708
vt 0.495980 0.311961
vt 0.452051 0.311961
vt 0.466114 0.021980
vt 0.495980 0.021980
vt 0.538822 0.291019
vt 0.524056 0.261708
vt 0.495980 0.316905
vt 0.447862 0.316905
vt 0.539910 0.311961
vt 0.454791 0.003506
vt 0.495980 0.003506
vt 0.525846 0.021980
vt 0.544098 0.316905
vt 0.537170 0.003506
vt 0.827219 0.174849
vt 0.827219 0.133659
vt 0.862976 0.144983
vt 0.862976 0.174849
vt 0.827219 0.216039
vt 0.862976 0.204715
vt 0.766750 0.192943
vt 0.766750 0.234132
vt 0.730993 0.222809
vt 0.730993 0.192943
vt 0.766750 0.151753
vt 0.730993 0.163077
vt 0.711345 0.229665
vt 0.726457 0.229665
vt 0.726457 0.287659
vt 0.699534 0.287659
vt 0.741569 0.229665
vt 0.753380 0.287659
vt 0.599079 0.314845
vt 0.583967 0.314845
vt 0.583967 0.256851
vt 0.610890 0.256851
vt 0.568854 0.314845
vt 0.557043 0.256851
vn -0.137961 0.211635 0.967563
vn 0.485234 0.746645 0.455048
vn 0.460060 0.725034 -0.512514
vn -0.651384 0.758748 0.000000
vn -0.188308 0.168412 -0.967563
vn -0.811503 -0.366600 -0.455047
vn -0.786328 -0.344989 0.512514
vn 0.026002 0.022323 0.999413
vn 0.669711 0.574945 0.470028
vn 0.658549 0.587751 0.469960
vn 0.014933 0.035209 0.999268
vn 0.643709 0.552622 -0.529385
vn 0.632550 0.565432 -0.529309
vn -0.026002 -0.022323 -0.999413
vn -0.037064 -0.009430 -0.999268
vn -0.669711 -0.574945 -0.470028
vn -0.680680 -0.561972 -0.469960
vn -0.643709 -0.552622 0.529385
vn -0.654681 -0.539653 0.529309
vn 0.667683 0.523721 -0.529070
vn -0.001299 -0.051257 -0.998685
vn -0.080753 0.041638 -0.995864
vn 0.586580 0.614542 -0.527505
vn 0.693661 0.546049 0.469751
vn 0.612490 0.636785 0.468359
vn 0.050643 -0.006614 0.998695
vn -0.028932 0.086126 0.995864
vn -0.618180 -0.581448 0.528935
vn -0.696266 -0.486778 0.527505
vn -0.644144 -0.603763 -0.469626
vn -0.722176 -0.509021 -0.468359
vn 0.419829 0.753979 -0.505232
vn -0.219327 0.205266 -0.953814
vn -0.076966 0.037203 -0.996339
vn 0.590685 0.610380 -0.527757
vn 0.444645 0.775284 0.448583
vn 0.616608 0.632634 0.468583
vn -0.169694 0.247875 0.953814
vn -0.025121 0.081712 0.996339
vn -0.808850 -0.300837 0.505232
vn -0.692773 -0.491465 0.527757
vn -0.833665 -0.322142 -0.448583
vn -0.718695 -0.513720 -0.468582
vn 0.671740 0.518710 -0.528872
vn 0.002677 -0.055679 -0.998445
vn -0.055291 0.011847 -0.998400
vn 0.613741 0.586209 -0.528849
vn 0.697717 0.541011 0.469573
vn 0.639717 0.608509 0.469552
vn 0.054632 -0.011076 0.998445
vn -0.003339 0.056448 0.998400
vn -0.614431 -0.585464 0.528873
vn -0.672372 -0.517915 0.528849
vn -0.640408 -0.607765 -0.469573
vn -0.698347 -0.540215 -0.469552
vn -0.064675 0.022580 -0.997651
vn 0.604242 0.596272 -0.528537
vn 0.630218 0.618550 0.469278
vn -0.012740 0.067122 0.997663
vn -0.681457 -0.506397 0.528373
vn -0.707417 -0.528661 -0.469126
vn 0.007804 -0.061212 -0.998094
vn 0.676320 0.513039 -0.528565
vn 0.702270 0.535330 0.469296
vn 0.059727 -0.016611 0.998077
vn -0.609069 -0.591108 0.528798
vn -0.635042 -0.613418 -0.469511
vn 0.693180 0.490922 -0.527729
vn 0.025564 -0.082224 -0.996286
vn 0.719101 0.513175 0.468557
vn 0.077406 -0.037718 0.996286
vn -0.590209 -0.610864 0.527729
vn -0.616130 -0.633117 -0.468557
vn 0.351885 0.831178 0.430489
vn -0.237678 0.325041 0.915346
vn 0.328069 0.810732 -0.484855
vn -0.285309 0.284150 -0.915346
vn -0.874871 -0.221989 -0.430490
vn -0.851056 -0.201543 0.484855
vn -0.200124 0.182434 -0.962636
vn 0.444943 0.736222 -0.509905
vn 0.469988 0.757724 0.452732
vn -0.150033 0.225438 0.962636
vn -0.795100 -0.328350 0.509905
vn -0.820145 -0.349852 -0.452732
s 1
g pDisc1 group4 group2
usemtl initialShadingGroup
f 67/89/1 68/90/2 69/91/3 70/92/4
f 69/91/3 71/93/5 72/94/6 70/92/4
f 72/94/6 73/95/7 67/89/1 70/92/4
f 6/1/8 1/2/9 76/3/10 77/4/11
f 1/2/9 4/5/12 75/6/13 76/3/10
f 4/41/12 2/33/14 74/36/15 75/42/13
f 2/33/14 5/34/16 79/35/17 74/36/15
f 5/34/16 3/37/18 78/38/19 79/35/17
f 3/9/18 6/1/8 77/4/11 78/10/19
f 14/79/20 13/73/21 10/76/22 9/80/23
f 15/66/24 14/69/20 9/70/23 8/67/25
f 16/65/26 15/66/24 8/67/25 7/68/27
f 17/71/28 16/65/26 7/68/27 12/72/29
f 18/74/30 17/77/28 12/78/29 11/75/31
f 13/73/21 18/74/30 11/75/31 10/76/22
f 20/120/32 19/121/33 49/122/34 50/123/35
f 21/128/36 20/120/32 50/123/35 51/129/37
f 22/12/38 21/11/36 51/13/37 52/14/39
f 23/138/40 22/139/38 52/140/39 53/141/41
f 24/146/42 23/138/40 53/141/41 54/147/43
f 19/44/33 24/43/42 54/45/43 49/46/34
f 26/57/44 25/50/45 31/52/46 32/58/47
f 27/17/48 26/21/44 32/22/47 33/19/49
f 28/18/50 27/17/48 33/19/49 34/20/51
f 29/25/52 28/18/50 34/20/51 35/26/53
f 30/49/54 29/53/52 35/54/53 36/51/55
f 25/50/45 30/49/54 36/51/55 31/52/46
f 32/156/47 31/157/46 37/158/56 38/159/57
f 33/160/49 32/156/47 38/159/57 39/161/58
f 34/20/51 33/19/49 39/23/58 40/24/59
f 35/162/53 34/163/51 40/164/59 41/165/60
f 36/166/55 35/162/53 41/165/60 42/167/61
f 31/52/46 36/51/55 42/55/61 37/56/56
f 38/63/57 37/56/56 55/60/62 56/64/63
f 39/23/58 38/29/57 56/30/63 57/27/64
f 40/24/59 39/23/58 57/27/64 58/28/65
f 41/31/60 40/24/59 58/28/65 59/32/66
f 42/55/61 41/61/60 59/62/66 60/59/67
f 37/56/56 42/55/61 60/59/67 55/60/62
f 44/127/68 43/126/69 25/133/45 26/134/44
f 45/135/70 44/127/68 26/134/44 27/137/48
f 46/16/71 45/15/70 27/17/48 28/18/50
f 47/145/72 46/144/71 28/151/50 29/152/52
f 48/153/73 47/145/72 29/152/52 30/155/54
f 43/48/69 48/47/73 30/49/54 25/50/45
f 50/123/35 49/122/34 43/126/69 44/127/68
f 51/129/37 50/123/35 44/127/68 45/135/70
f 52/14/39 51/13/37 45/15/70 46/16/71
f 53/141/41 52/140/39 46/144/71 47/145/72
f 54/147/43 53/141/41 47/145/72 48/153/73
f 49/46/34 54/45/43 48/47/73 43/48/69
f 56/96/63 55/97/62 13/98/21 14/99/20
f 57/102/64 56/96/63 14/99/20 15/103/24
f 58/106/65 57/102/64 15/103/24 16/107/26
f 59/104/66 58/106/65 16/107/26 17/105/28
f 60/100/67 59/104/66 17/105/28 18/101/30
f 55/97/62 60/100/67 18/101/30 13/98/21
f 7/108/27 8/109/25 62/110/74 61/111/75
f 8/109/25 9/112/23 63/113/76 62/110/74
f 9/112/23 10/116/22 64/117/77 63/113/76
f 10/116/22 11/118/31 65/119/78 64/117/77
f 11/118/31 12/114/29 66/115/79 65/119/78
f 12/114/29 7/108/27 61/111/75 66/115/79
f 61/81/75 62/82/74 68/83/2 67/84/1
f 62/168/74 63/169/76 69/170/3 68/171/2
f 63/169/76 64/172/77 71/173/5 69/170/3
f 64/85/77 65/86/78 72/87/6 71/88/5
f 65/174/78 66/175/79 73/176/7 72/177/6
f 66/175/79 61/178/75 67/179/1 73/176/7
f 75/130/13 74/131/15 80/125/80 81/124/81
f 76/136/10 75/130/13 81/124/81 82/132/82
f 77/4/11 76/3/10 82/7/82 83/8/83
f 78/148/19 77/149/11 83/143/83 84/142/84
f 79/154/17 78/148/19 84/142/84 85/150/85
f 74/36/15 79/35/17 85/39/85 80/40/80
f 81/124/81 80/125/80 19/121/33 20/120/32
f 82/132/82 81/124/81 20/120/32 21/128/36
f 83/8/83 82/7/82 21/11/36 22/12/38
f 84/142/84 83/143/83 22/139/38 23/138/40
f 85/150/85 84/142/84 23/138/40 24/146/42
f 80/40/80 85/39/85 24/43/42 19/44/33
g default
v 7.629346 0.619931 -0.032196
v 7.622365 0.613938 -0.032196
v 7.614512 0.607196 0.002369
v 7.622365 0.613938 0.036934
v 7.629346 0.619931 0.036934
v 7.633589 0.623574 0.002369
v 6.930902 1.468490 -0.032196
v 6.913061 1.453173 -0.032196
v 6.905209 1.446432 0.002369
v 6.913061 1.453173 0.036934
v 6.927214 1.465323 0.036934
v 6.925462 1.463819 0.002369
v 7.630217 0.620679 0.002369
v 6.905754 1.446900 0.002369
v 7.476081 0.731346 0.002369
v 7.487186 0.740879 -0.032196
v 7.508740 0.759384 -0.032196
v 7.485878 0.739757 0.002369
v 7.511760 0.761977 0.036934
v 7.487186 0.740879 0.036934
v 7.460460 0.733674 0.002369
v 7.475602 0.746673 -0.032196
v 7.491156 0.760026 -0.032196
v 7.475287 0.746403 0.002369
v 7.492859 0.761488 0.036934
v 7.475602 0.746673 0.036934
v 6.987935 1.299952 0.002369
v 6.999040 1.309485 -0.032196
v 7.031959 1.337747 -0.032196
v 6.997732 1.308362 0.002369
v 7.035343 1.340652 0.036934
v 6.999040 1.309485 0.036934
v 7.002149 1.292688 -0.032196
v 7.023708 1.311196 -0.032196
v 7.012953 1.301963 0.002369
v 7.023708 1.311196 0.036934
v 7.002149 1.292688 0.036934
v 6.987007 1.279689 0.002369
v 7.060163 1.165040 -0.032196
v 7.081722 1.183549 -0.032196
v 7.070967 1.174316 0.002369
v 7.081722 1.183549 0.036934
v 7.060163 1.165040 0.036934
v 7.045021 1.152041 0.002369
v 7.373774 0.842134 -0.032196
v 7.357704 0.828337 0.002369
v 7.373774 0.842134 0.036934
v 7.352215 0.823625 0.036934
v 7.337073 0.810626 0.002369
v 7.352215 0.823625 -0.032196
vt 0.803163 0.127138
vt 0.803163 0.065159
vt 0.833152 0.065159
vt 0.833152 0.127138
vt 0.803163 0.003179
vt 0.833152 0.003179
vt 0.838322 0.127812
vt 0.838322 0.065833
vt 0.868311 0.065833
vt 0.868311 0.127812
vt 0.838322 0.003854
vt 0.868311 0.003854
vt 0.324667 0.063996
vt 0.347663 0.063996
vt 0.347663 0.260962
vt 0.324667 0.260962
vt 0.324667 0.003164
vt 0.347663 0.003164
vt 0.347663 0.319989
vt 0.324667 0.319989
vt 0.301671 0.063996
vt 0.301671 0.260962
vt 0.301671 0.003164
vt 0.301671 0.319989
vt 0.274703 0.063114
vt 0.297698 0.063114
vt 0.297698 0.260081
vt 0.274703 0.260081
vt 0.274703 0.002282
vt 0.297698 0.002282
vt 0.297698 0.319107
vt 0.274703 0.319107
vt 0.251707 0.063114
vt 0.251707 0.260081
vt 0.251707 0.002282
vt 0.251707 0.319107
vt 0.880367 0.003892
vt 0.886488 0.003892
vt 0.887252 0.065871
vt 0.890209 0.065871
vt 0.873481 0.065871
vt 0.886488 0.127850
vt 0.880367 0.127850
vt 0.617839 0.001992
vt 0.617839 0.044154
vt 0.594844 0.061421
vt 0.594844 0.062712
vt 0.594844 0.014849
vt 0.617839 0.095007
vt 0.594844 0.121249
vt 0.571848 0.044154
vt 0.571848 0.010708
vt 0.617839 0.110395
vt 0.594844 0.146179
vt 0.571848 0.095007
vt 0.571848 0.110395
vt 0.914151 0.004336
vt 0.904415 0.066315
vt 0.897538 0.066315
vt 0.910814 0.004336
vt 0.914151 0.128295
vt 0.910814 0.128295
vt 0.922209 0.112505
vt 0.942255 0.174485
vt 0.933658 0.174485
vt 0.919743 0.112505
vt 0.944903 0.050526
vt 0.935151 0.050526
vt 0.795120 0.195307
vt 0.804551 0.133328
vt 0.820221 0.133328
vt 0.790210 0.195307
vt 0.804551 0.257286
vt 0.823188 0.257286
vt 0.554108 0.251793
vt 0.553579 0.251793
vt 0.552434 0.210386
vt 0.554070 0.210386
vt 0.552145 0.207704
vt 0.553326 0.207704
vt 0.549641 0.176541
vt 0.551277 0.176541
vt 0.549687 0.075637
vt 0.551323 0.075637
vt 0.551940 0.045398
vt 0.553576 0.045398
vt 0.552434 0.042081
vt 0.554932 0.042081
vt 0.554067 0.005018
vt 0.555421 0.005018
vt 0.564682 0.003168
vt 0.565211 0.003168
vt 0.565402 0.044575
vt 0.563537 0.044575
vt 0.564558 0.047256
vt 0.563249 0.047256
vt 0.562380 0.078420
vt 0.560745 0.078420
vt 0.562426 0.179323
vt 0.560791 0.179323
vt 0.564679 0.209562
vt 0.563043 0.209562
vt 0.566292 0.212880
vt 0.563537 0.212880
vt 0.566244 0.249943
vt 0.565170 0.249943
vt 0.873481 0.194244
vt 0.873481 0.132264
vt 0.900324 0.132264
vt 0.900324 0.194244
vt 0.873481 0.256223
vt 0.900324 0.256223
vn 0.697009 0.694206 -0.179603
vn -0.435074 -0.517602 -0.736749
vn -0.521482 -0.594702 -0.611871
vn 0.666036 0.728222 -0.161519
vn -0.645161 -0.764047 -0.000000
vn -0.643864 -0.765140 -0.000000
vn -0.418640 -0.498051 0.759398
vn -0.510229 -0.581869 0.633320
vn 0.699304 0.681358 0.216162
vn 0.673468 0.723740 0.150473
vn 0.701577 0.712016 -0.028681
vn 0.642547 0.765796 -0.026276
vn 0.651383 -0.758749 0.000000
vn 0.815209 0.569458 -0.105602
vn -0.440369 -0.206237 -0.873809
vn -0.651387 0.758746 0.000002
vn -0.865277 -0.501295 0.000000
vn -0.436586 -0.214136 0.873807
vn 0.786288 0.578379 0.217324
vn 0.803546 0.594669 0.026146
vn -0.517871 -0.855459 -0.000000
vn -0.241910 -0.423248 -0.873121
vn 0.525214 0.845445 0.096812
vn 0.552067 0.833539 -0.020854
vn 0.509463 0.854445 -0.101842
vn -0.235913 -0.412756 0.879760
vn -0.720378 -0.693582 -0.000000
vn -0.442120 -0.451119 -0.775256
vn 0.686061 0.670372 -0.282706
vn 0.730395 0.683018 -0.003117
vn 0.683685 0.671483 0.285806
vn -0.441465 -0.450451 0.776017
vn -0.632349 -0.341619 -0.695292
vn -0.895019 -0.446028 -0.000000
vn 0.844347 0.497211 -0.199649
vn 0.864460 0.502574 0.011335
vn 0.837986 0.517484 0.173173
vn -0.630685 -0.340720 0.697242
vn 0.915790 0.379485 -0.131603
vn -0.435298 -0.163113 -0.885387
vn 0.922688 0.385536 -0.003111
vn 0.922349 0.361272 0.136948
vn -0.434960 -0.162987 0.885576
vn -0.920135 -0.391602 0.000000
vn 0.752091 0.543954 -0.372119
vn -0.503920 -0.366613 -0.782087
vn 0.798716 0.601708 0.000000
vn 0.752091 0.543954 0.372119
vn -0.503920 -0.366613 0.782087
vn -0.793185 -0.608981 -0.000000
s 1
g group4 group2 pCylinder1
usemtl initialShadingGroup
f 86/254/86 87/255/87 101/256/88 102/257/89
f 87/180/87 88/181/90 100/182/91 101/183/88
f 88/181/90 89/184/92 105/185/93 100/182/91
f 89/270/92 90/271/94 104/272/95 105/273/93
f 90/186/94 91/187/96 103/188/97 104/189/95
f 91/187/96 86/190/86 102/191/89 103/188/97
f 87/216/87 86/217/86 98/218/98
f 88/220/90 87/216/87 98/218/98
f 89/222/92 88/220/90 98/218/98
f 90/221/94 89/222/92 98/218/98
f 91/219/96 90/221/94 98/218/98
f 86/217/86 91/219/96 98/218/98
f 92/223/99 93/224/100 99/225/101
f 93/224/100 94/226/102 99/225/101
f 94/226/102 95/230/103 99/225/101
f 95/230/103 96/231/104 99/225/101
f 96/231/104 97/227/105 99/225/101
f 97/227/105 92/223/99 99/225/101
f 101/236/88 100/237/91 106/238/106 107/239/107
f 102/257/89 101/256/88 107/258/107 108/259/108
f 103/242/97 102/243/89 108/244/108 109/245/109
f 104/246/95 103/242/97 109/245/109 110/247/110
f 105/273/93 104/272/95 110/274/110 111/275/111
f 100/237/91 105/240/93 111/241/111 106/238/106
f 107/214/107 106/208/106 134/204/112 135/212/113
f 108/259/108 107/258/107 135/260/113 130/261/114
f 109/196/109 108/197/108 130/193/114 131/192/115
f 110/202/110 109/196/109 131/192/115 132/200/116
f 111/275/111 110/274/110 132/276/116 133/277/117
f 106/208/106 111/209/111 133/205/117 134/204/112
f 113/228/118 112/229/119 94/226/102 93/224/100
f 114/267/120 113/266/118 93/268/100 92/269/99
f 115/286/121 114/287/120 92/288/99 97/289/105
f 116/290/122 115/286/121 97/289/105 96/291/104
f 117/283/123 116/282/122 96/284/104 95/285/103
f 112/229/119 117/234/123 95/230/103 94/226/102
f 119/265/124 118/264/125 113/266/118 114/267/120
f 120/248/126 119/249/124 114/250/120 115/251/121
f 121/252/127 120/248/126 115/251/121 116/253/122
f 122/281/128 121/280/127 116/282/122 117/283/123
f 123/233/129 122/235/128 117/234/123 112/229/119
f 118/232/125 123/233/129 112/229/119 113/228/118
f 125/263/130 124/262/131 118/264/125 119/265/124
f 126/195/132 125/194/130 119/198/124 120/199/126
f 127/201/133 126/195/132 120/199/126 121/203/127
f 128/279/134 127/278/133 121/280/127 122/281/128
f 129/207/135 128/206/134 122/210/128 123/211/129
f 124/213/131 129/207/135 123/211/129 118/215/125
f 131/192/115 130/193/114 125/194/130 126/195/132
f 132/200/116 131/192/115 126/195/132 127/201/133
f 133/277/117 132/276/116 127/278/133 128/279/134
f 134/204/112 133/205/117 128/206/134 129/207/135
f 135/212/113 134/204/112 129/207/135 124/213/131
f 130/261/114 135/260/113 124/262/131 125/263/130
