# This file uses centimeters as units for non-parametric coordinates.

mtllib plate.mtl
g default
v -2.329509 -0.327708 2.329509
v 2.329509 -0.327708 2.329509
v -2.329509 0.397213 2.329509
v 2.329509 0.397213 2.329509
v -2.329509 0.397213 -2.329509
v 2.329509 0.397213 -2.329509
v -2.329509 -0.327708 -2.329509
v 2.329509 -0.327708 -2.329509
vt 0.696924 0.874920
vt 0.696924 0.442999
vt 0.821791 0.442999
vt 0.821791 0.874920
vt 0.829575 0.874476
vt 0.829575 0.442555
vt 0.954441 0.442555
vt 0.954441 0.874476
vt 0.174240 0.944913
vt 0.174240 0.523246
vt 0.595907 0.523246
vt 0.595907 0.944913
vt 0.696924 0.434322
vt 0.696924 0.002399
vt 0.821791 0.002399
vt 0.821791 0.434322
vt 0.829575 0.435837
vt 0.829575 0.003916
vt 0.954441 0.003916
vt 0.954441 0.435837
vn 0.000000 0.000000 1.000000
vn 0.000000 0.000000 1.000000
vn 0.000000 0.000000 1.000000
vn 0.000000 0.000000 1.000000
vn 0.000000 1.000000 0.000000
vn 0.000000 1.000000 0.000000
vn 0.000000 1.000000 0.000000
vn 0.000000 1.000000 0.000000
vn 0.000000 0.000000 -1.000000
vn 0.000000 0.000000 -1.000000
vn 0.000000 0.000000 -1.000000
vn 0.000000 0.000000 -1.000000
vn 1.000000 0.000000 0.000000
vn 1.000000 0.000000 0.000000
vn 1.000000 0.000000 0.000000
vn 1.000000 0.000000 0.000000
vn -1.000000 0.000000 0.000000
vn -1.000000 0.000000 0.000000
vn -1.000000 0.000000 0.000000
vn -1.000000 0.000000 0.000000
s off
g pCube3 null3
usemtl initialShadingGroup
f 1/13/1 2/14/2 4/15/3 3/16/4
f 3/9/5 4/10/6 6/11/7 5/12/8
f 5/17/9 6/18/10 8/19/11 7/20/12
f 2/1/13 8/2/14 6/3/15 4/4/16
f 7/5/17 1/6/18 3/7/19 5/8/20
