# This file uses centimeters as units for non-parametric coordinates.

mtllib cubo.mtl
g default
v -1.433492 0.071384 1.264091
v -1.264091 0.001215 1.264091
v -1.264091 0.071384 1.433492
v -1.264091 0.240786 1.503661
v -1.433492 0.240786 1.433492
v -1.503661 0.240786 1.264091
v 1.433493 0.071384 1.264091
v 1.503661 0.240786 1.264091
v 1.433493 0.240786 1.433492
v 1.264091 0.240786 1.503661
v 1.264091 0.071384 1.433492
v 1.264091 0.001215 1.264091
v -1.433492 2.938369 1.264091
v -1.503661 2.768967 1.264091
v -1.433492 2.768967 1.433492
v -1.264091 2.768967 1.503661
v -1.264091 2.938369 1.433492
v -1.264091 3.008538 1.264091
v 1.433493 2.938369 1.264091
v 1.264091 3.008538 1.264091
v 1.264091 2.938369 1.433492
v 1.264091 2.768967 1.503661
v 1.433493 2.768967 1.433492
v 1.503661 2.768967 1.264091
v -1.433492 2.768967 -1.433492
v -1.503661 2.768967 -1.264090
v -1.433492 2.938369 -1.264090
v -1.264091 3.008538 -1.264090
v -1.264091 2.938369 -1.433492
v -1.264091 2.768967 -1.503661
v 1.433493 2.768967 -1.433492
v 1.264091 2.768967 -1.503661
v 1.264091 2.938369 -1.433492
v 1.264091 3.008538 -1.264090
v 1.433493 2.938369 -1.264090
v 1.503661 2.768967 -1.264090
v -1.433492 0.071384 -1.264090
v -1.503661 0.240786 -1.264090
v -1.433492 0.240786 -1.433492
v -1.264091 0.240786 -1.503661
v -1.264091 0.071384 -1.433492
v -1.264091 0.001215 -1.264090
v 1.433493 0.071384 -1.264090
v 1.264091 0.001215 -1.264090
v 1.264091 0.071384 -1.433492
v 1.264091 0.240786 -1.503661
v 1.433493 0.240786 -1.433492
v 1.503661 0.240786 -1.264090
v -1.402358 0.102518 1.402359
v 1.402359 0.102518 1.402359
v -1.402358 2.907235 1.402359
v 1.402359 2.907235 1.402359
v -1.402358 2.907235 -1.402358
v 1.402359 2.907235 -1.402358
v -1.402358 0.102518 -1.402358
v 1.402359 0.102518 -1.402358
vt 0.069189 0.077127
vt 0.066724 0.015189
vt 0.071518 0.010896
vt 0.923709 0.068352
vt 0.927894 0.072578
vt 0.073330 0.072858
vt 0.073308 0.072880
vt 0.071493 0.010918
vt 0.015939 0.934069
vt 0.927873 0.072556
vt 0.077880 0.931648
vt 0.989854 0.070721
vt 0.011757 0.929304
vt 0.928260 0.927142
vt 0.073716 0.927444
vt 0.927949 0.072547
vt 0.989911 0.070737
vt 0.934866 0.984811
vt 0.928206 0.927112
vt 0.932400 0.922873
vt 0.989833 0.070696
vt 0.071530 0.010928
vt 0.928282 0.927121
vt 0.073384 0.072888
vt 0.930071 0.989104
vt 0.011755 0.929301
vt 0.073695 0.927422
vt 0.073309 0.072878
vt 0.073715 0.927442
vt 0.071495 0.010916
vt 0.930096 0.989082
vt 0.927874 0.072557
vt 0.989834 0.070698
vt 0.011679 0.929262
vt 0.928280 0.927122
vt 0.073641 0.927453
vt 0.011735 0.929279
vt 0.930065 0.989067
vt 0.073646 0.927458
vt 0.928210 0.927107
vt 0.011683 0.929269
vt 0.930094 0.989084
vt 0.073379 0.072893
vt 0.071524 0.010933
vt 0.930060 0.989072
vt 0.927944 0.072542
vt 0.985651 0.065931
vt 0.989906 0.070732
vt 0.016937 0.025842
vt 0.979733 0.020818
vt 0.979990 0.978925
vt 0.979669 0.020810
vt 0.021897 0.979168
vt 0.021635 0.021095
vt 0.021599 0.021075
vt 0.984652 0.974158
vt 0.994163 0.924088
vt 0.979949 0.978910
vt 0.979728 0.020812
vt 0.929724 0.010791
vt 0.989954 0.928936
vt 0.011579 0.071079
vt 0.974981 0.016114
vt 0.979955 0.978905
vt 0.989959 0.928931
vt 0.924880 0.006586
vt 0.011630 0.071069
vt 0.021856 0.979182
vt 0.980013 0.978903
vt 0.990031 0.928898
vt 0.071860 0.989204
vt 0.071872 0.989171
vt 0.021862 0.979188
vt 0.021920 0.979190
vt 0.071894 0.989191
vt 0.071866 0.989209
vt 0.929695 0.010809
vt 0.021640 0.021089
vt 0.980015 0.978901
vt 0.990032 0.928896
vt 0.011636 0.071063
vt 0.990011 0.928921
vt 0.021576 0.021097
vt 0.021922 0.979192
vt 0.071896 0.989193
vt 0.011559 0.071102
vt 0.929729 0.010796
vt 0.026609 0.983886
vt 0.979667 0.020808
vt 0.929693 0.010807
vt 0.076709 0.993414
vt 0.007426 0.075912
vt 0.979692 0.020832
vt 0.021574 0.021099
vt 0.011557 0.071104
vt 0.929718 0.010829
vn -0.025457 -0.999352 0.025457
vn -0.380810 -0.924509 0.016323
vn -0.380810 -0.924509 -0.016323
vn -0.025457 -0.999352 -0.025457
vn -0.924509 -0.380810 0.016323
vn -0.999352 -0.025457 0.025457
vn -0.999352 -0.025457 -0.025457
vn -0.924509 -0.380811 -0.016323
vn -0.025457 -0.025457 0.999352
vn -0.016323 -0.380810 0.924509
vn 0.016323 -0.380810 0.924509
vn 0.025457 -0.025457 0.999352
vn -0.016323 -0.924509 0.380810
vn 0.025457 -0.999352 0.025457
vn 0.016323 -0.924509 0.380811
vn -0.924509 -0.016323 0.380811
vn -0.924509 0.016323 0.380811
vn -0.999352 0.025457 0.025457
vn -0.380810 -0.016323 0.924509
vn -0.025457 0.025457 0.999352
vn -0.380810 0.016323 0.924509
vn 0.999352 -0.025457 0.025457
vn 0.924509 -0.380811 0.016323
vn 0.924509 -0.380810 -0.016323
vn 0.999352 -0.025457 -0.025457
vn 0.380810 -0.924509 0.016323
vn 0.025457 -0.999352 -0.025457
vn 0.380810 -0.924509 -0.016323
vn 0.380810 -0.016323 0.924509
vn 0.380810 0.016323 0.924509
vn 0.025457 0.025457 0.999352
vn 0.924509 -0.016323 0.380811
vn 0.999352 0.025457 0.025457
vn 0.924509 0.016323 0.380811
vn -0.924509 0.380811 0.016323
vn -0.924509 0.380811 -0.016323
vn -0.999352 0.025457 -0.025457
vn -0.380811 0.924509 0.016323
vn -0.025457 0.999352 0.025457
vn -0.025457 0.999352 -0.025457
vn -0.380811 0.924509 -0.016323
vn -0.016323 0.924509 0.380811
vn 0.016323 0.924509 0.380811
vn 0.025457 0.999352 0.025457
vn -0.016323 0.380811 0.924509
vn 0.016323 0.380811 0.924509
vn 0.380811 0.924509 0.016323
vn 0.380811 0.924509 -0.016323
vn 0.025457 0.999352 -0.025457
vn 0.924509 0.380811 0.016323
vn 0.999352 0.025457 -0.025457
vn 0.924509 0.380811 -0.016323
vn -0.924509 0.016323 -0.380811
vn -0.924509 -0.016323 -0.380811
vn -0.380810 0.016323 -0.924509
vn -0.025457 0.025457 -0.999352
vn -0.025457 -0.025457 -0.999352
vn -0.380810 -0.016323 -0.924509
vn -0.016323 0.380811 -0.924509
vn 0.016323 0.380811 -0.924509
vn 0.025457 0.025457 -0.999352
vn -0.016323 0.924509 -0.380811
vn 0.016323 0.924509 -0.380811
vn 0.380810 0.016323 -0.924509
vn 0.380810 -0.016323 -0.924509
vn 0.025457 -0.025457 -0.999352
vn 0.924509 0.016323 -0.380811
vn 0.924509 -0.016323 -0.380811
vn -0.016323 -0.924509 -0.380811
vn 0.016323 -0.924509 -0.380810
vn -0.016323 -0.380810 -0.924509
vn 0.016323 -0.380810 -0.924509
vn -0.887919 -0.325269 0.325269
vn -0.325269 -0.887919 0.325269
vn -0.325269 -0.325269 0.887919
vn 0.325269 -0.887919 0.325269
vn 0.887919 -0.325269 0.325269
vn 0.325269 -0.325269 0.887919
vn -0.325269 0.887919 0.325269
vn -0.887919 0.325270 0.325269
vn -0.325269 0.325269 0.887919
vn 0.887919 0.325270 0.325269
vn 0.325270 0.887919 0.325269
vn 0.325269 0.325269 0.887919
vn -0.325269 0.325269 -0.887919
vn -0.887919 0.325270 -0.325269
vn -0.325270 0.887919 -0.325269
vn 0.887919 0.325270 -0.325269
vn 0.325269 0.325269 -0.887919
vn 0.325269 0.887919 -0.325269
vn -0.325269 -0.887919 -0.325269
vn -0.887919 -0.325269 -0.325269
vn -0.325269 -0.325269 -0.887919
vn 0.887919 -0.325269 -0.325269
vn 0.325269 -0.887919 -0.325269
vn 0.325269 -0.325269 -0.887919
s 1
g pCube4
usemtl initialShadingGroup1
f 2/1/1 1/2/2 37/66/3 42/4/4
s 2
f 1/96/5 6/5/6 38/6/7 37/3/8
s 3
f 4/7/9 3/8/10 11/90/11 10/10/12
s 1
f 3/92/13 2/1/1 12/11/14 11/9/15
s 2
f 6/5/6 5/12/16 15/82/17 14/14/18
s 3
f 5/95/19 4/7/9 16/15/20 15/13/21
s 4
f 8/16/22 7/17/23 43/61/24 48/19/25
s 1
f 7/91/26 12/11/14 44/20/27 43/18/28
s 3
f 10/10/12 9/21/29 23/80/30 22/23/31
s 4
f 9/87/32 8/16/22 24/24/33 23/22/34
s 2
f 14/14/18 13/25/35 27/72/36 26/27/37
s 5
f 13/86/38 18/28/39 28/29/40 27/26/41
f 18/28/39 17/30/42 21/77/43 20/32/44
s 3
f 17/85/45 16/15/20 22/23/31 21/31/46
s 5
f 20/32/44 19/33/47 35/70/48 34/35/49
s 4
f 19/81/50 24/24/33 36/36/51 35/34/52
s 2
f 26/27/37 25/37/53 39/62/54 38/6/7
s 6
f 25/76/55 30/39/56 40/40/57 39/38/58
f 30/39/56 29/41/59 33/67/60 32/43/61
s 5
f 29/75/62 28/29/40 34/35/49 33/42/63
s 6
f 32/43/61 31/44/64 47/60/65 46/46/66
s 4
f 31/71/67 36/36/51 48/19/25 47/45/68
s 1
f 42/4/4 41/47/69 45/57/70 44/20/27
s 6
f 41/65/71 40/40/57 46/46/66 45/48/72
s 3
f 4/7/9 10/10/12 22/23/31 16/15/20
s 5
f 18/28/39 20/32/44 34/35/49 28/29/40
s 6
f 30/39/56 32/43/61 46/46/66 40/40/57
s 1
f 42/4/4 44/20/27 12/11/14 2/1/1
s 4
f 8/16/22 48/19/25 36/36/51 24/24/33
s 2
f 38/6/7 6/5/6 14/14/18 26/27/37
f 5/12/16 6/5/6 1/96/5 49/93/73
s 1
f 1/2/2 2/1/1 3/92/13 49/49/74
s 3
f 3/8/10 4/7/9 5/95/19 49/94/75
s 1
f 11/9/15 12/11/14 7/91/26 50/88/76
s 4
f 7/17/23 8/16/22 9/87/32 50/50/77
s 3
f 9/21/29 10/10/12 11/90/11 50/89/78
s 5
f 17/30/42 18/28/39 13/86/38 51/83/79
s 2
f 13/25/35 14/14/18 15/82/17 51/51/80
s 3
f 15/13/21 16/15/20 17/85/45 51/84/81
s 4
f 23/22/34 24/24/33 19/81/50 52/78/82
s 5
f 19/33/47 20/32/44 21/77/43 52/52/83
s 3
f 21/31/46 22/23/31 23/80/30 52/79/84
s 6
f 29/41/59 30/39/56 25/76/55 53/73/85
s 2
f 25/37/53 26/27/37 27/72/36 53/53/86
s 5
f 27/26/41 28/29/40 29/75/62 53/74/87
s 4
f 35/34/52 36/36/51 31/71/67 54/68/88
s 6
f 31/44/64 32/43/61 33/67/60 54/54/89
s 5
f 33/42/63 34/35/49 35/70/48 54/69/90
s 1
f 41/47/69 42/4/4 37/66/3 55/63/91
s 2
f 37/3/8 38/6/7 39/62/54 55/55/92
s 6
f 39/38/58 40/40/57 41/65/71 55/64/93
s 4
f 47/45/68 48/19/25 43/61/24 56/58/94
s 1
f 43/18/28 44/20/27 45/57/70 56/56/95
s 6
f 45/48/72 46/46/66 47/60/65 56/59/96
